<svg width="58" height="40" viewBox="0 0 58 40" fill="none" xmlns="http://www.w3.org/2000/svg">
<rect x="0.5" y="0.5" width="57" height="39" rx="5.5" fill="white"/>
<rect x="0.5" y="0.5" width="57" height="39" rx="5.5" stroke="#F9F7F6"/>
<path fill-rule="evenodd" clip-rule="evenodd" d="M41.585 31.0348C41.585 31.6218 41.3518 32.1848 40.9367 32.5999C40.5216 33.0149 39.9587 33.2481 39.3717 33.2481H17.2158C16.925 33.2484 16.6369 33.1914 16.3681 33.0804C16.0992 32.9693 15.8549 32.8063 15.6492 32.6007C15.4434 32.3952 15.2801 32.1511 15.1687 31.8824C15.0573 31.6137 15 31.3257 15 31.0348V8.87998C15 8.58911 15.0573 8.3011 15.1687 8.0324C15.2801 7.76371 15.4434 7.5196 15.6492 7.31404C15.8549 7.10848 16.0992 6.9455 16.3681 6.83442C16.6369 6.72334 16.925 6.66634 17.2158 6.66667H39.3701C39.9571 6.66667 40.5201 6.89985 40.9352 7.31493C41.3503 7.73001 41.5835 8.29298 41.5835 8.87998L41.585 31.0348Z" fill="#EDAA00"/>
<path d="M29.8438 20.2444V15.4842L31.0868 15.19V15.8132C31.0868 15.8132 31.4082 14.9928 32.1547 14.8021C32.3846 14.7443 32.5003 14.779 32.5003 14.779V15.9933C32.2766 15.9964 32.0556 16.0425 31.8494 16.1291C31.3886 16.3107 31.1572 16.7081 31.1572 17.3117V19.94L29.8438 20.2444ZM23.2939 21.7922C23.2939 21.7922 23.0927 21.4904 23.0927 20.4179V18.0482L22.4529 18.1991V17.2237L23.0932 17.0728V16.0084L24.4147 15.6965V16.7584L25.3483 16.5371V17.5129L24.4147 17.7348V20.1493C24.4147 21.2464 24.7059 21.4572 24.7059 21.4572L23.2939 21.7922ZM25.4861 18.9607C25.4861 18.1141 25.6068 17.4968 25.8654 17.023C26.1727 16.4606 26.6783 16.0944 27.4137 15.9269C28.8629 15.5974 29.3856 16.4556 29.3649 17.6055C29.3584 18.0165 29.3599 18.2172 29.3599 18.2172L26.8066 18.8173V18.8585C26.8066 19.6634 26.9756 20.0442 27.4846 19.9355C27.9243 19.843 28.0465 19.5673 28.0812 19.2273C28.0873 19.1714 28.0893 19.0321 28.0893 19.0321L29.286 18.7454C29.286 18.7454 29.289 18.8435 29.286 18.9526C29.2749 19.4099 29.1421 20.5437 27.4796 20.936C25.9051 21.3098 25.4846 20.348 25.4846 18.9607H25.4861ZM27.465 16.8132C27.042 16.9093 26.8201 17.3243 26.8111 18.0119L28.0958 17.7061C28.0983 17.6749 28.0983 17.6055 28.0983 17.4989C28.0958 16.9802 27.9353 16.7066 27.4655 16.8132H27.465ZM36.9702 16.1769C36.9199 14.7272 37.2962 13.5763 38.9134 13.209C39.9456 12.9746 40.3365 13.2422 40.5347 13.5013C40.7253 13.7488 40.7988 14.0823 40.7988 14.5496V14.6361L39.5321 14.9379V14.7614C39.5321 14.2081 39.3812 13.9968 38.9788 14.0974C38.5004 14.2176 38.3073 14.6713 38.3073 15.5748V15.9958C38.3073 16.9138 38.433 17.3344 38.9838 17.2187C39.4627 17.1181 39.5281 16.6995 39.5372 16.3313C39.5372 16.2735 39.5407 16.0884 39.5407 16.0884L40.8053 15.7906V15.9873C40.8018 17.1905 40.1675 17.9491 38.9783 18.2257C37.3419 18.61 37.021 17.6628 36.9707 16.1769H36.9702ZM32.5954 18.2061C32.5954 17.1035 33.2423 16.7549 34.2146 16.353C35.0884 15.9913 35.107 15.8117 35.111 15.4978C35.1156 15.2337 34.9933 15.0069 34.5577 15.118C34.1578 15.2186 34.0517 15.5094 34.0305 15.7408C34.0232 15.8221 34.0205 15.9037 34.0225 15.9853L32.7966 16.2745C32.7883 16.0302 32.8168 15.786 32.8811 15.5501C33.0773 14.8907 33.6593 14.447 34.6623 14.2151C35.9662 13.9133 36.4013 14.4867 36.4033 15.3771V17.4853C36.4033 18.5049 36.5924 18.6538 36.5924 18.6538L35.3887 18.939C35.3222 18.7998 35.268 18.6551 35.2267 18.5064C35.2267 18.5064 34.9636 19.1699 34.0552 19.3842C33.0994 19.6086 32.5964 19.018 32.5964 18.2066L32.5954 18.2061ZM35.104 16.7011C34.901 16.8433 34.6867 16.9687 34.4631 17.0758C34.0607 17.2725 33.8801 17.514 33.8801 17.8862C33.8801 18.2086 34.0813 18.4209 34.4435 18.3304C34.8334 18.2328 35.104 17.8691 35.104 17.3646V16.7011ZM16.3863 25.1288C16.249 25.1285 16.1142 25.0912 15.9963 25.0208C15.8783 24.9504 15.7815 24.8494 15.7161 24.7287C15.6507 24.6079 15.619 24.4717 15.6244 24.3344C15.6299 24.1972 15.6722 24.0639 15.747 23.9487L15.755 23.9381L15.7696 23.9346L17.5654 23.5105V24.8752L17.5373 24.8818C17.1298 24.9799 16.6429 25.091 16.5423 25.1117C16.4908 25.1232 16.4381 25.1289 16.3853 25.1288H16.3863ZM16.3863 26.8748C16.1845 26.8748 15.9909 26.7948 15.848 26.6523C15.7051 26.5098 15.6244 26.3165 15.6238 26.1147C15.623 25.9674 15.6658 25.8232 15.747 25.7002L15.755 25.6866L15.7696 25.6836L17.5654 25.2596V26.6243L17.5373 26.6318C17.1298 26.7294 16.6429 26.8426 16.5423 26.8622C16.4906 26.8723 16.438 26.8774 16.3853 26.8773L16.3863 26.8748ZM16.3863 28.6238C16.1841 28.6237 15.9901 28.5432 15.8471 28.4001C15.7041 28.257 15.6238 28.063 15.6238 27.8607C15.623 27.7134 15.6658 27.5692 15.747 27.4462L15.755 27.4321L17.5659 27.0056V28.3703L17.5378 28.3773C17.1077 28.4809 16.6293 28.5891 16.5428 28.6087C16.4911 28.6186 16.4385 28.6236 16.3858 28.6238" fill="#231F20"/>
<path d="M16.1751 23.4562L16.1746 15.8208L17.5664 15.4918V23.1267L16.1751 23.4562Z" fill="#231F20"/>
<path d="M19.6424 22.8068C19.637 22.5826 19.5441 22.3694 19.3836 22.2127C19.2232 22.0561 19.0078 21.9684 18.7835 21.9684C18.5592 21.9684 18.3439 22.0561 18.1834 22.2127C18.0229 22.3694 17.93 22.5826 17.9246 22.8068V29.9437C17.9257 30.5601 18.1709 31.1509 18.6067 31.5868C19.0425 32.0226 19.6332 32.268 20.2496 32.2692C20.8995 32.2692 22.6802 32.2662 22.6802 32.2662V25.9688C22.6805 25.7837 22.6351 25.6014 22.548 25.438C22.4608 25.2747 22.3347 25.1355 22.1807 25.0327L20.0137 23.5608V26.9029C20.015 26.928 20.0112 26.953 20.0025 26.9765C19.9938 27 19.9805 27.0215 19.9632 27.0397C19.946 27.0578 19.9252 27.0723 19.9022 27.0822C19.8791 27.0921 19.8544 27.0972 19.8293 27.0972C19.8042 27.0972 19.7795 27.0921 19.7564 27.0822C19.7334 27.0723 19.7126 27.0578 19.6954 27.0397C19.6782 27.0215 19.6648 27 19.6561 26.9765C19.6474 26.953 19.6436 26.928 19.6449 26.9029C19.6449 26.8672 19.6404 23.2479 19.6404 22.8068H19.6424ZM20.8024 17.4822C20.5392 17.5431 20.2923 17.6599 20.0784 17.8249C19.8645 17.9898 19.6887 18.1989 19.563 18.438V17.9033L18.3099 18.2001V21.6272C18.5297 21.5405 18.7692 21.5161 19.0019 21.5569C19.2346 21.5976 19.4516 21.7019 19.6288 21.8581V19.6448C19.6288 19.1151 19.8934 18.6915 20.2697 18.6085C20.5539 18.5461 20.7903 18.6478 20.7903 19.1523V22.3812L22.1098 22.0714V18.6563C22.1098 17.8278 21.7919 17.2478 20.8019 17.4822H20.8024ZM39.9853 12.5953C39.8239 12.5954 39.666 12.5477 39.5317 12.458C39.3974 12.3684 39.2926 12.241 39.2308 12.0918C39.1689 11.9427 39.1526 11.7785 39.184 11.6201C39.2154 11.4618 39.2931 11.3162 39.4072 11.202C39.5213 11.0877 39.6667 11.0099 39.8251 10.9783C39.9834 10.9467 40.1476 10.9628 40.2968 11.0245C40.446 11.0862 40.5736 11.1907 40.6634 11.3249C40.7532 11.4591 40.8011 11.617 40.8012 11.7784C40.8008 11.9946 40.7147 12.2019 40.5618 12.3547C40.4089 12.5076 40.2016 12.5936 39.9853 12.5938V12.5953ZM39.9853 11.0641C39.8442 11.0641 39.7062 11.106 39.5888 11.1844C39.4715 11.2628 39.38 11.3742 39.3259 11.5046C39.2719 11.635 39.2577 11.7785 39.2852 11.917C39.3127 12.0554 39.3807 12.1826 39.4804 12.2825C39.5802 12.3823 39.7073 12.4503 39.8458 12.4779C39.9842 12.5055 40.1277 12.4915 40.2581 12.4375C40.3886 12.3836 40.5001 12.2922 40.5786 12.1748C40.6571 12.0575 40.699 11.9196 40.6991 11.7784C40.6989 11.5891 40.6236 11.4077 40.4898 11.2738C40.356 11.1399 40.1746 11.0645 39.9853 11.0641Z" fill="#231F20"/>
<path d="M39.6881 11.293H40.0402C40.1805 11.293 40.2917 11.3629 40.2917 11.5485C40.2917 11.6778 40.2344 11.7774 40.1257 11.7945C40.2263 11.8046 40.2766 11.8589 40.2812 11.9993C40.2812 12.0621 40.2842 12.1406 40.2872 12.2005C40.2872 12.2176 40.2915 12.2344 40.2998 12.2494C40.308 12.2643 40.32 12.2769 40.3345 12.286H40.1554C40.1374 12.2602 40.1279 12.2294 40.1282 12.198C40.1222 12.1381 40.1232 12.0823 40.1212 12.0098C40.1212 11.9012 40.0855 11.8534 39.9758 11.8534H39.8496V12.286H39.6901L39.6881 11.293ZM39.9743 11.7367C39.9959 11.7387 40.0178 11.7358 40.0382 11.7284C40.0586 11.7209 40.077 11.709 40.0923 11.6935C40.1075 11.6779 40.1191 11.6592 40.1261 11.6387C40.1332 11.6182 40.1357 11.5963 40.1333 11.5747C40.1333 11.4686 40.088 11.4132 39.9824 11.4132H39.8496V11.7367H39.9743Z" fill="#231F20"/>
</svg>
