<svg width="58" height="40" viewBox="0 0 58 40" fill="none" xmlns="http://www.w3.org/2000/svg">
<rect x="0.5" y="0.5" width="57" height="39" rx="5.5" fill="white"/>
<rect x="0.5" y="0.5" width="57" height="39" rx="5.5" stroke="#F9F7F6"/>
<path d="M36.6364 19.9238C37.5219 19.943 38.4123 19.8847 39.2942 19.9541C40.1873 20.1207 40.4026 21.4728 39.6091 21.9156C39.0677 22.2073 38.4246 22.0242 37.8377 22.0757H36.6364V19.9238ZM39.8062 17.4881C40.0029 18.1825 39.3335 18.8059 38.6648 18.7103H36.6364C36.6506 18.0555 36.6086 17.3448 36.657 16.7244C37.4696 16.7473 38.2896 16.6778 39.0975 16.7608C39.4446 16.848 39.7351 17.1334 39.8062 17.4881ZM44.6877 7.19087C44.7254 8.51694 44.6932 9.9131 44.704 11.2661C44.7015 16.7667 44.7093 22.2672 44.6997 27.7682C44.6641 29.8297 42.8371 31.621 40.7898 31.6621C38.7406 31.6705 36.6911 31.6634 34.6416 31.6657V23.3499C36.8746 23.3383 39.1088 23.3733 41.3409 23.3324C42.3764 23.2674 43.5106 22.5842 43.5588 21.4447C43.6807 20.3002 42.6017 19.5086 41.5773 19.3836C41.1835 19.3734 41.1951 19.2688 41.5773 19.2232C42.5544 19.012 43.3216 18.0008 43.0342 16.9881C42.7892 15.9229 41.6119 15.5106 40.6326 15.5126C38.6359 15.4991 36.6388 15.5107 34.642 15.5068C34.6549 13.9543 34.6151 12.4002 34.6635 10.8489C34.8217 8.82457 36.6947 7.15519 38.7131 7.1914C40.7049 7.1911 42.6964 7.1911 44.6877 7.19103V7.19087Z" fill="url(#paint0_linear_1_52657)"/>
<path d="M12.0775 11.0584C12.1285 9.00014 13.9633 7.22354 16.0079 7.19346C18.0495 7.18717 20.0915 7.19255 22.1331 7.19073C22.1275 14.0772 22.1442 20.9644 22.1247 27.8504C22.0461 29.8837 20.2313 31.6264 18.209 31.6624C16.1634 31.6698 14.1177 31.6634 12.0721 31.6655V23.0693C14.0591 23.5387 16.1427 23.7385 18.1697 23.4271C19.3814 23.2322 20.707 22.6372 21.1173 21.3801C21.4191 20.3049 21.2492 19.1732 21.2941 18.0696V15.5067H17.7861C17.7704 17.2017 17.8184 18.8998 17.7608 20.5928C17.6662 21.6334 16.6356 22.2946 15.6542 22.2593C14.437 22.2722 12.025 21.3772 12.025 21.3772C12.0189 18.2013 12.0603 14.224 12.0775 11.0587V11.0584Z" fill="url(#paint1_linear_1_52657)"/>
<path d="M23.4414 16.5406C23.2567 16.5798 23.4042 15.9117 23.357 15.6582C23.3696 14.0557 23.3307 12.4514 23.3785 10.8499C23.5362 8.81708 25.4236 7.14353 27.4502 7.19111H33.4185C33.4129 14.0776 33.4295 20.9647 33.4101 27.8508C33.3314 29.884 31.5164 31.6267 29.494 31.6628C27.4485 31.6705 25.4027 31.664 23.3569 31.6659V22.2476C24.7541 23.394 26.653 23.5724 28.3936 23.5755C29.7057 23.5751 31.0103 23.3727 32.2846 23.0701V21.3447C30.8485 22.0604 29.1603 22.515 27.5684 22.1038C26.4579 21.8274 25.6518 20.7542 25.6698 19.6081C25.5411 18.4163 26.2397 17.1581 27.4109 16.8038C28.865 16.3486 30.4498 16.6967 31.8128 17.2886C32.1049 17.4415 32.4013 17.6311 32.2845 17.143V15.7868C30.0049 15.2444 27.5789 15.0448 25.2886 15.6349C24.6257 15.8219 23.9799 16.1055 23.4414 16.5408V16.5406Z" fill="url(#paint2_linear_1_52657)"/>
<defs>
<linearGradient id="paint0_linear_1_52657" x1="34.5729" y1="18.905" x2="44.6405" y2="18.905" gradientUnits="userSpaceOnUse">
<stop stop-color="#58B03A"/>
<stop offset="1" stop-color="#55B330"/>
</linearGradient>
<linearGradient id="paint1_linear_1_52657" x1="11.8581" y1="19.6625" x2="21.9682" y2="19.6625" gradientUnits="userSpaceOnUse">
<stop stop-color="#0F6EB6"/>
<stop offset="1" stop-color="#006DBA"/>
</linearGradient>
<linearGradient id="paint2_linear_1_52657" x1="23.3422" y1="19.1423" x2="33.4166" y2="19.1423" gradientUnits="userSpaceOnUse">
<stop stop-color="#DE0D3D"/>
<stop offset="1" stop-color="#E30138"/>
</linearGradient>
</defs>
</svg>
