<svg width="58" height="40" viewBox="0 0 58 40" fill="none" xmlns="http://www.w3.org/2000/svg">
<rect x="0.5" y="0.5" width="57" height="39" rx="5.5" fill="white"/>
<rect x="0.5" y="0.5" width="57" height="39" rx="5.5" stroke="#F9F7F6"/>
<path d="M48.7591 17.4572C49.4445 17.4572 50 16.9016 50 16.2163C50 15.531 49.4445 14.9754 48.7591 14.9754C48.0738 14.9754 47.5182 15.531 47.5182 16.2163C47.5182 16.9016 48.0738 17.4572 48.7591 17.4572Z" fill="#7887E6"/>
<path d="M48.7591 21.342C49.4445 21.342 50 20.7864 50 20.1011C50 19.4157 49.4445 18.8602 48.7591 18.8602C48.0738 18.8602 47.5182 19.4157 47.5182 20.1011C47.5182 20.7864 48.0738 21.342 48.7591 21.342Z" fill="#FF5073"/>
<path fill-rule="evenodd" clip-rule="evenodd" d="M9.82591 18.1939H8.6219V21.1996H6.66666V12.9722H9.82591C11.71 12.9722 12.6044 14.069 12.6044 15.5234C12.6044 17.2042 11.4115 18.1939 9.82591 18.1939ZM9.53263 14.4026H8.6219V16.7626H9.61152C10.2959 16.7626 10.7461 16.3098 10.7058 15.4951C10.6749 14.8785 10.1501 14.4026 9.53263 14.4026ZM17.9985 21.1987H16.0904H16.0895V20.9286C15.7088 21.1679 15.2105 21.3411 14.7517 21.3411C13.5889 21.3411 12.7047 20.4647 12.7047 19.421C12.7047 18.3525 13.4611 17.1957 16.0904 17.3826V16.977C16.0904 16.5122 15.6968 16.357 15.256 16.357C14.636 16.357 13.9088 16.6314 13.5632 16.7866L13.0383 15.7018C13.6103 15.3442 14.5408 14.9746 15.7208 14.9746C17.128 14.9746 17.9985 15.5946 17.9985 16.9658V21.1987ZM14.6111 19.3867C14.6111 19.8275 14.9335 20.1019 15.4103 20.1019C15.7088 20.1019 15.9832 19.9947 16.1607 19.8635V18.5875C15.0056 18.3962 14.6111 18.8859 14.6111 19.3867ZM36.978 15.1178V14.8674C36.978 13.425 37.7884 12.4834 39.3268 12.4834C39.6733 12.4834 39.9708 12.5314 40.2333 12.6026V13.9609C40.0789 13.9138 39.8525 13.8778 39.6733 13.8778C39.0884 13.8778 38.874 14.2594 38.874 14.7962V15.1178H40.1852V16.4178H38.874V21.1987H36.978V16.4178H35.9643V15.1178H36.978ZM30.4579 15.7026C31.0299 15.345 31.9604 14.9754 33.1404 14.9754C34.5476 14.9754 35.4181 15.5955 35.4172 16.9658V21.1987H33.5091V20.9295C33.1284 21.1687 32.6301 21.342 32.1713 21.342C31.0085 21.342 30.1243 20.4655 30.1243 19.4219C30.1243 18.3534 30.8807 17.1965 33.51 17.3835V16.9778C33.51 16.513 33.1164 16.3578 32.6756 16.3578C32.0556 16.3578 31.3284 16.6322 30.9828 16.7875L30.4579 15.7026ZM32.7588 20.1019C33.0572 20.1019 33.3308 19.9947 33.51 19.8635H33.5091V18.5875C32.354 18.3962 31.9595 18.8859 31.9595 19.3867C31.9595 19.8275 32.282 20.1019 32.7588 20.1019ZM24.7817 15.1186L21.7005 22.9053H19.8851L20.6878 20.9132L18.1159 15.1186H20.0686L21.5745 18.7521L22.8865 15.1186H24.7817ZM46.2782 18.0652V18.5403V18.542H42.3248C42.3549 18.8542 42.4346 19.1089 42.5547 19.3113C42.5551 19.3117 42.5553 19.3121 42.5555 19.3125C42.5557 19.313 42.556 19.3134 42.5564 19.3138C42.5761 19.3456 42.5967 19.3764 42.6181 19.4056C42.631 19.4236 42.6439 19.4399 42.6576 19.457C42.6602 19.4602 42.6629 19.4635 42.6656 19.4668C42.6715 19.4741 42.6776 19.4817 42.6842 19.4888C42.7073 19.5162 42.7322 19.5428 42.7579 19.5677L42.7605 19.5702C42.8239 19.6311 42.8951 19.686 42.974 19.734C42.9747 19.7344 42.9752 19.7346 42.9757 19.7347C42.9764 19.735 42.9769 19.7352 42.9774 19.7357C43.0126 19.7572 43.0503 19.7769 43.0889 19.7958C43.0966 19.7992 43.1035 19.8026 43.1104 19.8061C43.1335 19.8172 43.1584 19.8275 43.1833 19.8369C43.2055 19.8455 43.2278 19.8532 43.25 19.8609L43.2501 19.8609C43.2664 19.8661 43.2836 19.8712 43.3007 19.8764C43.3325 19.885 43.3642 19.8935 43.3968 19.9013C43.4024 19.9025 43.4079 19.9036 43.4135 19.9047C43.4191 19.9058 43.4247 19.9068 43.4302 19.9081C43.462 19.915 43.4937 19.9201 43.5263 19.9253C43.5357 19.927 43.5443 19.9287 43.5537 19.9296C43.594 19.9347 43.6352 19.939 43.6764 19.9416C43.6812 19.942 43.6858 19.9422 43.6905 19.9424C43.6957 19.9426 43.7009 19.9428 43.7064 19.9433C43.7501 19.9458 43.7938 19.9476 43.8393 19.9476C44.3573 19.9476 44.9353 19.8018 45.5055 19.4785L46.0372 20.6602C45.1959 21.2433 44.1043 21.3428 43.5529 21.3428C41.5736 21.3428 40.3336 20.1139 40.3336 18.1947C40.3336 16.3227 41.6457 14.9754 43.3385 14.9754C45.0313 14.9754 46.2782 16.2824 46.2782 18.0652ZM44.3521 17.5387C44.2801 16.7283 43.8633 16.3107 43.3385 16.3107C42.8137 16.3107 42.3969 16.7274 42.3248 17.5387H44.3521ZM26.8159 19.9587C27.3767 19.9587 27.7103 19.7915 27.7103 19.4579C27.7103 19.1015 27.255 18.946 26.7076 18.7591C25.8828 18.4775 24.849 18.1246 24.8495 16.9049C24.8495 15.6177 25.9935 14.9737 27.4127 14.9737C28.188 14.9737 28.9512 15.2121 29.452 15.4625L28.9152 16.7146C28.5336 16.5482 28.0087 16.369 27.5079 16.369C27.0311 16.369 26.7447 16.5473 26.7447 16.8338C26.7447 17.1488 27.17 17.291 27.6898 17.4647C28.5072 17.738 29.5584 18.0894 29.5584 19.3138C29.5584 20.6259 28.3663 21.3411 26.9831 21.3411C26.2079 21.3411 25.3735 21.1627 24.6583 20.7811L25.2663 19.5531C25.6951 19.7683 26.2439 19.9587 26.8159 19.9587ZM33.6489 25.2722V24.4712H33.305V24.2465H34.2561L34.2912 24.4712H33.9662V25.2722H33.6489ZM35.3855 25.2722L35.3469 24.5295L35.3203 24.6293C35.2633 24.8437 35.2063 25.0576 35.1462 25.2722H34.8675L34.6668 24.5295L34.6282 25.2722H34.3444C34.3753 24.9317 34.4027 24.5878 34.4293 24.2474H34.8281L35.0099 24.9746L35.0117 24.9668C35.0694 24.7259 35.1263 24.4883 35.1874 24.2474H35.5861L35.6676 25.2722H35.3855ZM6.67524 24.5484V29.1243H7.76263V27.4529H8.43238C9.31481 27.4529 9.9777 26.9024 9.9777 25.9676C9.9777 25.1581 9.48032 24.5484 8.43238 24.5484H6.67524ZM8.92376 26.0071C8.92376 26.4247 8.6785 26.6571 8.31404 26.6571H7.76349V25.3442H8.31404C8.70509 25.3442 8.92376 25.616 8.92376 26.0071ZM12.0539 28.7864L12.1139 29.1243V29.1252H13.0821V26.7712C13.0821 26.0079 12.5984 25.6632 11.8155 25.6632C11.1586 25.6632 10.6415 25.869 10.3233 26.068L10.6149 26.6717C10.807 26.5851 11.2117 26.4324 11.5565 26.4324C11.8017 26.4324 12.0204 26.5182 12.0204 26.7772V27.0027C10.608 26.9761 10.1372 27.4598 10.1372 28.1896C10.1372 28.8662 10.668 29.2041 11.192 29.2041C11.6165 29.2041 11.8678 28.9922 12.0539 28.7864ZM11.9348 27.6628C11.9623 27.666 11.9905 27.6692 12.0213 27.6716V28.3808C11.9218 28.4537 11.7691 28.5137 11.6036 28.5137C11.3387 28.5137 11.1594 28.3611 11.1594 28.1158C11.1594 27.838 11.3584 27.6519 11.7829 27.6519C11.8381 27.6519 11.8852 27.6572 11.9348 27.6628ZM14.1103 30.5633L14.6677 29.1243H14.3495C14.2264 28.7369 14.1041 28.3497 13.9818 27.9624L13.9817 27.9624L13.9817 27.9623L13.9817 27.9623L13.9817 27.9622L13.9817 27.9622L13.9817 27.9621L13.9817 27.9621L13.9816 27.962C13.7479 27.2221 13.5142 26.4823 13.275 25.7421H14.3495L14.9858 28.2487L15.7019 25.7421H16.7567C16.4511 26.6255 16.1496 27.5093 15.8489 28.3908L15.8487 28.3913L15.8486 28.3915L15.8484 28.3922L15.8481 28.3931C15.6005 29.1187 15.3535 29.8428 15.105 30.5642H14.1103V30.5633ZM18.6734 24.5484V29.1243H21.505V28.3354H19.7607V24.5484H18.6734ZM23.7801 29.1243L23.7201 28.7864C23.534 28.9922 23.2827 29.2041 22.8582 29.2041C22.3343 29.2041 21.8035 28.8662 21.8035 28.1896C21.8035 27.4598 22.2743 26.9761 23.6867 27.0027V26.7772C23.6867 26.5182 23.468 26.4324 23.2227 26.4324C22.878 26.4324 22.4732 26.5851 22.2811 26.6717L21.9895 26.068C22.3077 25.869 22.8248 25.6632 23.4817 25.6632C24.2646 25.6632 24.7483 26.0079 24.7483 26.7712V29.1252H23.7801V29.1243ZM23.6875 27.6716C23.6567 27.6692 23.6285 27.666 23.6011 27.6628C23.5514 27.6572 23.5044 27.6519 23.4491 27.6519C23.0246 27.6519 22.8257 27.838 22.8257 28.1158C22.8257 28.3611 23.0049 28.5137 23.2699 28.5137C23.4354 28.5137 23.588 28.4537 23.6875 28.3808V27.6716ZM25.6239 28.2024C25.6239 29.0848 26.2542 29.1243 26.5723 29.1243V29.126H27.3287V28.416H27.0371C26.8047 28.416 26.6787 28.3096 26.6787 27.9649V26.4659H27.3287V25.7429H26.6787V24.7345L25.6239 25.0989V25.7421H25.1068V26.465H25.6239V28.2024ZM30.6972 28.8722C30.4854 29.0317 29.934 29.2041 29.3903 29.2041C28.2892 29.2041 27.5997 28.5206 27.5997 27.4529C27.5997 26.4119 28.3295 25.6623 29.2711 25.6623C29.994 25.6623 30.7101 26.0534 30.7101 27.2471V27.645H28.7077C28.7608 28.2024 29.0987 28.428 29.5498 28.428C29.8885 28.428 30.2727 28.2891 30.3988 28.2093L30.6972 28.8722ZM29.7359 27.0885C29.7359 26.6305 29.5369 26.405 29.2582 26.405C28.9666 26.405 28.748 26.6374 28.7077 27.0885H29.7359ZM31.1414 25.7421V29.1243H32.2022V26.9358C32.3883 26.7497 32.6867 26.6374 32.9654 26.6374C33.0315 26.6374 33.1704 26.6374 33.2304 26.6503V25.6623C32.7733 25.6623 32.3686 25.9411 32.1499 26.3587V25.7421H31.1414Z" fill="#2D2341"/>
</svg>
