<svg width="58" height="40" viewBox="0 0 58 40" fill="none" xmlns="http://www.w3.org/2000/svg">
<rect x="0.5" y="0.5" width="57" height="39" rx="5.5" fill="white"/>
<rect x="0.5" y="0.5" width="57" height="39" rx="5.5" stroke="#F9F7F6"/>
<path d="M39.6667 17.9652C39.5499 17.2435 38.9072 16.7624 38.0309 16.7624C37.7388 16.7624 37.5051 16.7624 37.213 16.7624C36.6872 16.7022 36.5703 16.8826 36.5703 17.3036C36.5703 19.4086 36.5703 21.4534 36.5703 23.5583C36.5703 24.6409 35.5187 25.7835 34.2918 26.0241C30.4359 26.9262 26.58 27.7682 22.7241 28.6703C22.3151 28.7906 21.8477 28.7906 21.3804 28.7906C21.2051 28.7906 20.913 28.6703 20.8546 28.4899C20.7961 28.3696 20.9714 28.129 21.0882 28.0088C21.2635 27.8885 21.4972 27.7682 21.7309 27.6479C22.432 27.4073 23.1915 27.1668 23.8925 26.9262C26.7553 25.964 29.618 25.0017 32.4807 23.9793C33.766 23.5583 34.4671 22.6562 34.4671 21.5135C34.5255 17.905 34.4671 14.2364 34.4671 10.628C34.4671 10.0265 34.175 9.54541 33.5323 9.30485C32.7728 9.00414 32.0717 9.2447 31.4291 9.54541C27.3395 11.5301 23.3083 13.5147 19.2187 15.4994C18.0502 16.1008 17.3492 16.9428 17.3492 18.1456C17.3492 21.5736 17.3492 25.0017 17.3492 28.4297C17.3492 28.6102 17.3492 28.7906 17.4076 28.9109C17.8166 30.0536 18.8682 30.7753 20.2703 30.7753C23.133 30.7753 25.9958 30.7753 28.8585 30.7753C31.7212 30.7753 34.5255 30.7753 37.3882 30.7753C38.0309 30.7753 38.5567 30.655 39.0241 30.234C39.6083 29.7529 39.6083 29.0913 39.6083 28.4899C39.6083 25.5311 39.6667 17.9652 39.6667 17.9652ZM27.7484 16.8826C28.0406 16.1008 28.6832 15.6197 29.618 15.4994C30.2606 15.4393 30.7864 15.8001 30.9033 16.4015C31.0201 17.3036 29.9685 18.3862 28.8585 18.3862C27.9821 18.3862 27.4563 17.7246 27.7484 16.8826Z" fill="#FD6727"/>
</svg>
