<svg width="22" height="16" viewBox="0 0 22 16" fill="none" xmlns="http://www.w3.org/2000/svg">
<g clip-path="url(#clip0_1_50145)">
<g clip-path="url(#clip1_1_50145)">
<path d="M19.9048 0H2.09524C0.93807 0 0 0.955126 0 2.13333V13.8667C0 15.0449 0.93807 16 2.09524 16H19.9048C21.0619 16 22 15.0449 22 13.8667V2.13333C22 0.955126 21.0619 0 19.9048 0Z" fill="#F93939"/>
<path fill-rule="evenodd" clip-rule="evenodd" d="M0 0H7V16H0V0Z" fill="#151515"/>
<path fill-rule="evenodd" clip-rule="evenodd" d="M15 0H22V16H15V0Z" fill="#249F58"/>
<path fill-rule="evenodd" clip-rule="evenodd" d="M11 10.6667C12.4457 10.6667 13.619 9.472 13.619 8C13.619 6.528 12.4457 5.33333 11 5.33333C9.55428 5.33333 8.38095 6.528 8.38095 8C8.38095 9.472 9.55428 10.6667 11 10.6667ZM11 9.6C11.8674 9.6 12.5714 8.64533 12.5714 7.46667C12.5714 6.288 11.8674 5.33333 11 5.33333C10.1326 5.33333 9.42857 6.288 9.42857 7.46667C9.42857 8.64533 10.1326 9.6 11 9.6ZM11 8.53333C11.2891 8.53333 11.5238 8.05547 11.5238 7.46667C11.5238 6.87787 11.2891 6.4 11 6.4C10.7109 6.4 10.4762 6.87787 10.4762 7.46667C10.4762 8.05547 10.7109 8.53333 11 8.53333Z" fill="white"/>
</g>
</g>
<defs>
<clipPath id="clip0_1_50145">
<rect width="22" height="16" fill="white"/>
</clipPath>
<clipPath id="clip1_1_50145">
<rect width="22" height="16" rx="2" fill="white"/>
</clipPath>
</defs>
</svg>
