<svg width="22" height="16" viewBox="0 0 22 16" fill="none" xmlns="http://www.w3.org/2000/svg">
<g clip-path="url(#clip0_1_50151)">
<g clip-path="url(#clip1_1_50151)">
<rect width="22" height="16" rx="2" fill="#F93939"/>
<path d="M19.9048 0H2.09524C0.93807 0 0 0.955126 0 2.13333V13.8667C0 15.0449 0.93807 16 2.09524 16H19.9048C21.0619 16 22 15.0449 22 13.8667V2.13333C22 0.955126 21.0619 0 19.9048 0Z" fill="#F93939"/>
<path fill-rule="evenodd" clip-rule="evenodd" d="M11 4.26667L9.42856 3.2L8.38094 4.26667H9.42856L8.38094 5.33333L6.28571 4.26667V9.6L9.42856 8.53333L8.38094 10.6667H7.33332L8.38094 11.7333L9.42856 10.6667L11 12.8V4.26667ZM12.5714 3.2L13.619 4.26667H12.5714L13.619 5.33333L15.7143 4.26667V9.6L12.5714 8.53333L13.619 10.6667H14.6667L13.619 11.7333L12.5714 10.6667L11 12.8V4.26667L12.5714 3.2Z" fill="#151515"/>
</g>
</g>
<defs>
<clipPath id="clip0_1_50151">
<rect width="22" height="16" fill="white"/>
</clipPath>
<clipPath id="clip1_1_50151">
<rect width="22" height="16" rx="2" fill="white"/>
</clipPath>
</defs>
</svg>
