<svg width="22" height="16" viewBox="0 0 22 16" fill="none" xmlns="http://www.w3.org/2000/svg">
<g clip-path="url(#clip0_1_50192)">
<g clip-path="url(#clip1_1_50192)">
<rect width="22" height="16" rx="2" fill="#3ECBF8"/>
<path d="M19.9048 0H2.09524C0.93807 0 0 0.955126 0 2.13333V13.8667C0 15.0449 0.93807 16 2.09524 16H19.9048C21.0619 16 22 15.0449 22 13.8667V2.13333C22 0.955126 21.0619 0 19.9048 0Z" fill="#3ECBF8"/>
<path fill-rule="evenodd" clip-rule="evenodd" d="M4.69858 4.784C5.61001 4.72533 6.28572 4.51733 6.28572 4.26667C6.28572 4.01707 5.61001 3.808 4.69858 3.74933C4.64096 2.82133 4.43667 2.13333 4.19048 2.13333C3.94534 2.13333 3.74001 2.82133 3.68239 3.74933C2.77096 3.808 2.09525 4.016 2.09525 4.26667C2.09525 4.51627 2.77096 4.72533 3.68239 4.784C3.74001 5.712 3.94429 6.4 4.19048 6.4C4.43563 6.4 4.64096 5.712 4.69858 4.784Z" fill="#F93939"/>
<path fill-rule="evenodd" clip-rule="evenodd" d="M4.69857 4.784C5.61 4.72533 6.28571 4.51733 6.28571 4.26667C6.28571 4.01707 5.61 3.808 4.69857 3.74933C4.64095 2.82133 4.43666 2.13333 4.19047 2.13333C3.94533 2.13333 3.74 2.82133 3.68238 3.74933C2.77095 3.808 2.09524 4.016 2.09524 4.26667C2.09524 4.51627 2.77095 4.72533 3.68238 4.784C3.74 5.712 3.94428 6.4 4.19047 6.4C4.43562 6.4 4.64095 5.712 4.69857 4.784ZM4.73 5.31733L5.22238 4.816C5.14381 6.09387 4.8819 6.93333 4.19047 6.93333C3.49905 6.93333 3.23714 6.0928 3.15962 4.81707L3.6499 5.31627C2.39695 5.23733 1.57143 4.97067 1.57143 4.26667C1.57143 3.56267 2.39695 3.296 3.6499 3.21707L3.15962 3.71627C3.23714 2.44053 3.49905 1.6 4.19047 1.6C4.8819 1.6 5.14381 2.44053 5.22133 3.71627L4.73105 3.21707C5.984 3.296 6.80952 3.56267 6.80952 4.26667C6.80952 4.97067 5.984 5.23733 4.73105 5.31627L4.73 5.31733Z" fill="white"/>
<path fill-rule="evenodd" clip-rule="evenodd" d="M0 10H22V11H0V10ZM0 12H22V13H0V12Z" fill="#FFDA2C"/>
</g>
</g>
<defs>
<clipPath id="clip0_1_50192">
<rect width="22" height="16" fill="white"/>
</clipPath>
<clipPath id="clip1_1_50192">
<rect width="22" height="16" rx="2" fill="white"/>
</clipPath>
</defs>
</svg>
