<svg width="22" height="16" viewBox="0 0 22 16" fill="none" xmlns="http://www.w3.org/2000/svg">
<g clip-path="url(#clip0_1_50214)">
<g clip-path="url(#clip1_1_50214)">
<path d="M19.9048 0H2.09524C0.93807 0 0 0.955126 0 2.13333V13.8667C0 15.0449 0.93807 16 2.09524 16H19.9048C21.0619 16 22 15.0449 22 13.8667V2.13333C22 0.955126 21.0619 0 19.9048 0Z" fill="#F93939"/>
<path fill-rule="evenodd" clip-rule="evenodd" d="M0 11H22V16H0V11Z" fill="#249F58"/>
<path fill-rule="evenodd" clip-rule="evenodd" d="M0 0H22V5H0V0Z" fill="#3ECBF8"/>
<path fill-rule="evenodd" clip-rule="evenodd" d="M12.5714 7.46667H13.619V8.53333H12.5714V7.46667Z" fill="white"/>
<path fill-rule="evenodd" clip-rule="evenodd" d="M13.0952 9.6C12.6175 10.2475 11.857 10.6667 11 10.6667C9.55428 10.6667 8.38095 9.472 8.38095 8C8.38095 6.528 9.55428 5.33333 11 5.33333C11.857 5.33333 12.6175 5.75253 13.0952 6.4H11.5238C10.6564 6.4 9.95238 7.1168 9.95238 8C9.95238 8.8832 10.6564 9.6 11.5238 9.6H13.0952Z" fill="white"/>
</g>
</g>
<defs>
<clipPath id="clip0_1_50214">
<rect width="22" height="16" fill="white"/>
</clipPath>
<clipPath id="clip1_1_50214">
<rect width="22" height="16" rx="2" fill="white"/>
</clipPath>
</defs>
</svg>
