<svg width="22" height="16" viewBox="0 0 22 16" fill="none" xmlns="http://www.w3.org/2000/svg">
<g clip-path="url(#clip0_1_50249)">
<g clip-path="url(#clip1_1_50249)">
<rect width="22" height="16" rx="2" fill="#1A47B8"/>
<path d="M11 12.8C13.6036 12.8 15.7143 10.651 15.7143 8C15.7143 5.34903 13.6036 3.2 11 3.2C8.39638 3.2 6.28572 5.34903 6.28572 8C6.28572 10.651 8.39638 12.8 11 12.8Z" fill="white"/>
<path fill-rule="evenodd" clip-rule="evenodd" d="M8.90475 8.53333H13.0952V9.6H8.90475V8.53333Z" fill="#CBCBCB"/>
<path fill-rule="evenodd" clip-rule="evenodd" d="M8.38095 5.33333H9.42857V6.4H8.38095V5.33333ZM10.4762 4.26667H11.5238V5.33333H10.4762V4.26667ZM12.5714 5.33333H13.619V6.4H12.5714V5.33333ZM13.619 7.46667H14.6667V8.53333H13.619V7.46667ZM12.5714 9.6H13.619V10.6667H12.5714V9.6Z" fill="#249F58"/>
<path fill-rule="evenodd" clip-rule="evenodd" d="M11.5238 6.4H12.5714V7.46667H11.5238V6.4Z" fill="#151515"/>
<path fill-rule="evenodd" clip-rule="evenodd" d="M11.5238 7.46667H12.5714V8.53333H11.5238V7.46667Z" fill="#AE6A3E"/>
<path fill-rule="evenodd" clip-rule="evenodd" d="M9.42857 6.4H10.4762V7.46667H9.42857V6.4Z" fill="#AE6A3E"/>
<path fill-rule="evenodd" clip-rule="evenodd" d="M9.42857 7.46667H10.4762V8.53333H9.42857V7.46667Z" fill="#FFDA2C"/>
<path fill-rule="evenodd" clip-rule="evenodd" d="M10.4762 10.6667H11.5238V11.7333H10.4762V10.6667ZM8.38095 9.6H9.42857V10.6667H8.38095V9.6ZM7.33333 7.46667H8.38095V8.53333H7.33333V7.46667Z" fill="#249F58"/>
<path fill-rule="evenodd" clip-rule="evenodd" d="M0 13.8667H22V16H0V13.8667ZM0 0H22V2.13333H0V0Z" fill="#F93939"/>
</g>
</g>
<defs>
<clipPath id="clip0_1_50249">
<rect width="22" height="16" fill="white"/>
</clipPath>
<clipPath id="clip1_1_50249">
<rect width="22" height="16" rx="2" fill="white"/>
</clipPath>
</defs>
</svg>
