<svg width="22" height="16" viewBox="0 0 22 16" fill="none" xmlns="http://www.w3.org/2000/svg">
<g clip-path="url(#clip0_1_50270)">
<g clip-path="url(#clip1_1_50270)">
<path d="M19.9048 0H2.09524C0.93807 0 0 0.955126 0 2.13333V13.8667C0 15.0449 0.93807 16 2.09524 16H19.9048C21.0619 16 22 15.0449 22 13.8667V2.13333C22 0.955126 21.0619 0 19.9048 0Z" fill="#FFDA2C"/>
<path fill-rule="evenodd" clip-rule="evenodd" d="M9.42856 7.46667H10.4762V8.53333H9.42856V7.46667ZM11.5238 7.46667H12.5714V8.53333H11.5238V7.46667Z" fill="#03BCDB"/>
<path fill-rule="evenodd" clip-rule="evenodd" d="M12.5714 7.46667H13.619V9.6H12.5714V7.46667ZM11.5238 6.4H12.5714V7.46667H11.5238V6.4ZM9.42857 6.4H10.4762V7.46667H9.42857V6.4ZM8.38095 7.46667H9.42857V9.6H8.38095V7.46667Z" fill="#AF010D"/>
<path fill-rule="evenodd" clip-rule="evenodd" d="M10.4762 8.53333H11.5238V9.6H10.4762V8.53333Z" fill="#249F58"/>
<path fill-rule="evenodd" clip-rule="evenodd" d="M10.4762 6.4H11.5238V7.46667H10.4762V6.4Z" fill="#151515"/>
<path fill-rule="evenodd" clip-rule="evenodd" d="M11.5238 8.53333H12.5714V9.6H11.5238V8.53333ZM9.42856 8.53333H10.4762V9.6H9.42856V8.53333Z" fill="#D4AF2C"/>
<path fill-rule="evenodd" clip-rule="evenodd" d="M10.4762 7.46667H11.5238V8.53333H10.4762V7.46667Z" fill="#249F58"/>
<path fill-rule="evenodd" clip-rule="evenodd" d="M0 10.6667H22V16H0V10.6667Z" fill="#249F58"/>
<path fill-rule="evenodd" clip-rule="evenodd" d="M0 0H22V5.33333H0V0Z" fill="#F93939"/>
</g>
</g>
<defs>
<clipPath id="clip0_1_50270">
<rect width="22" height="16" fill="white"/>
</clipPath>
<clipPath id="clip1_1_50270">
<rect width="22" height="16" rx="2" fill="white"/>
</clipPath>
</defs>
</svg>
