<svg width="22" height="16" viewBox="0 0 22 16" fill="none" xmlns="http://www.w3.org/2000/svg">
<g clip-path="url(#clip0_1_50312)">
<g clip-path="url(#clip1_1_50312)">
<rect width="22" height="16" rx="2" fill="#F93939"/>
<path d="M19.9048 0H2.09524C0.93807 0 0 0.955126 0 2.13333V13.8667C0 15.0449 0.93807 16 2.09524 16H19.9048C21.0619 16 22 15.0449 22 13.8667V2.13333C22 0.955126 21.0619 0 19.9048 0Z" fill="#F93939"/>
<path fill-rule="evenodd" clip-rule="evenodd" d="M0 8H22V16H0V8Z" fill="#249F58"/>
<path fill-rule="evenodd" clip-rule="evenodd" d="M11 9.86667L8.84503 11.0208L9.25675 8.57813L7.51141 6.8448L9.92094 6.48853L11 4.26667L12.079 6.4896L14.4886 6.84587L12.7432 8.57707L13.1549 11.0219" fill="#FFDA2C"/>
</g>
</g>
<defs>
<clipPath id="clip0_1_50312">
<rect width="22" height="16" fill="white"/>
</clipPath>
<clipPath id="clip1_1_50312">
<rect width="22" height="16" rx="2" fill="white"/>
</clipPath>
</defs>
</svg>
