<svg width="22" height="16" viewBox="0 0 22 16" fill="none" xmlns="http://www.w3.org/2000/svg">
<g clip-path="url(#clip0_1_50323)">
<g clip-path="url(#clip1_1_50323)">
<rect width="22" height="16" rx="2" fill="#F93939"/>
<path fill-rule="evenodd" clip-rule="evenodd" d="M8.38094 5.33333H8.90475L9.42856 6.4H8.38094V5.33333ZM9.42856 6.4H10.4762V7.46667H9.42856V6.4ZM8.38094 7.46667H9.42856V8.53333H8.38094V7.46667ZM7.33332 8.53333H8.38094V9.6H7.33332V8.53333ZM7.33332 9.6H8.38094V10.6667H7.33332V9.6ZM6.80952 9.6H7.33332V10.6667H6.28571L6.80952 9.6ZM9.42856 8.53333H11.5238V10.6667H9.42856V8.53333ZM13.619 5.33333H13.0952L12.5714 6.4H13.619V5.33333ZM12.5714 6.4H11.5238V7.46667H12.5714V6.4ZM13.619 7.46667H12.5714V8.53333H13.619V7.46667ZM14.6667 8.53333H13.619V9.6H14.6667V8.53333ZM14.6667 9.6H13.619V10.6667H14.6667V9.6ZM15.1905 9.6H14.6667V10.6667H15.7143L15.1905 9.6ZM12.5714 8.53333H11.5238V10.6667H12.5714V8.53333Z" fill="white"/>
<path opacity="0.7" fill-rule="evenodd" clip-rule="evenodd" d="M9.42858 7.46667H10.4762V8.53333H9.42858V7.46667ZM8.38096 8.53333H9.42858V10.6667H8.38096V8.53333ZM8.38096 6.4H9.42858V7.46667H8.38096V6.4ZM7.85715 7.46667H8.38096V8.53333H7.33334L7.85715 7.46667ZM12.5714 7.46667H11.5238V8.53333H12.5714V7.46667ZM13.6191 8.53333H12.5714V10.6667H13.6191V8.53333ZM13.6191 6.4H12.5714V7.46667H13.6191V6.4ZM14.1429 7.46667H13.6191V8.53333H14.6667L14.1429 7.46667ZM11.5238 6.4H10.4762V8.53333H11.5238V6.4Z" fill="white"/>
<path opacity="0.7" fill-rule="evenodd" clip-rule="evenodd" d="M10.4762 5.33333H11.5238V6.4H10.4762V5.33333Z" fill="white"/>
<path fill-rule="evenodd" clip-rule="evenodd" d="M0 0H22V4H0V0ZM0 12H22V16H0V12Z" fill="#232C80"/>
</g>
</g>
<defs>
<clipPath id="clip0_1_50323">
<rect width="22" height="16" fill="white"/>
</clipPath>
<clipPath id="clip1_1_50323">
<rect width="22" height="16" rx="2" fill="white"/>
</clipPath>
</defs>
</svg>
