<svg width="22" height="16" viewBox="0 0 22 16" fill="none" xmlns="http://www.w3.org/2000/svg">
<g clip-path="url(#clip0_1_50340)">
<rect width="22" height="16" rx="2" fill="#1A47B8"/>
<path fill-rule="evenodd" clip-rule="evenodd" d="M0 8.53333H22V9.6H0V8.53333Z" fill="white"/>
<path fill-rule="evenodd" clip-rule="evenodd" d="M0 9.6H22V10.6667H0V9.6Z" fill="#F93939"/>
<path fill-rule="evenodd" clip-rule="evenodd" d="M0 10.6667H22V11.7333H0V10.6667Z" fill="white"/>
<path fill-rule="evenodd" clip-rule="evenodd" d="M5.23811 7.46667H6.28573V8.53333H5.23811V7.46667ZM7.33335 6.4H8.38097V7.46667H7.33335V6.4ZM9.42859 7.46667H10.4762V8.53333H9.42859V7.46667ZM10.4762 9.6H11.5238V10.6667H10.4762V9.6ZM4.19049 9.6H5.23811V10.6667H4.19049V9.6ZM9.42859 11.7333H10.4762V12.8H9.42859V11.7333ZM7.33335 12.8H8.38097V13.8667H7.33335V12.8ZM5.23811 11.7333H6.28573V12.8H5.23811V11.7333Z" fill="#FFDA2C"/>
</g>
<defs>
<clipPath id="clip0_1_50340">
<rect width="22" height="16" fill="white"/>
</clipPath>
</defs>
</svg>
