<svg width="22" height="16" viewBox="0 0 22 16" fill="none" xmlns="http://www.w3.org/2000/svg">
<g clip-path="url(#clip0_1_50432)">
<g clip-path="url(#clip1_1_50432)">
<rect width="22" height="16" rx="2" fill="#249F58"/>
<path fill-rule="evenodd" clip-rule="evenodd" d="M10.4762 7.46667H0V8.53333H10.4762V16H11.5238V8.53333H22V7.46667H11.5238V0H10.4762V7.46667Z" fill="#151515"/>
<path fill-rule="evenodd" clip-rule="evenodd" d="M9.42857 6.4V7.46667H10.4762V0H9.42857V6.4H0V7.46667H10.4762V6.4H9.42857ZM10.4762 7.46667H22V6.4H9.42857V7.46667H10.4762V6.4H9.42857V16H10.4762V7.46667Z" fill="#FFDA2C"/>
<path fill-rule="evenodd" clip-rule="evenodd" d="M12.5714 9.6V8.53333H11.5238V16H12.5714V9.6H22V8.53333H11.5238V9.6H12.5714ZM0 8.53333H13.619V9.6H0V8.53333ZM11.5238 0H12.5714V9.6H11.5238V0Z" fill="white"/>
<path d="M11 11.7333C13.0251 11.7333 14.6667 10.0619 14.6667 8C14.6667 5.93814 13.0251 4.26667 11 4.26667C8.97497 4.26667 7.33334 5.93814 7.33334 8C7.33334 10.0619 8.97497 11.7333 11 11.7333Z" fill="#F93939"/>
<path fill-rule="evenodd" clip-rule="evenodd" d="M9.42856 6.4H10.4762V7.46667H9.42856V6.4ZM11.5238 6.4H12.5714V7.46667H11.5238V6.4ZM11.5238 8.53333H12.5714V9.6H11.5238V8.53333ZM9.42856 8.53333H10.4762V9.6H9.42856V8.53333Z" fill="#0A6A30"/>
<path fill-rule="evenodd" clip-rule="evenodd" d="M10.4762 6.4H11.5238V8.53333H10.4762V6.4Z" fill="#955DCC"/>
</g>
</g>
<defs>
<clipPath id="clip0_1_50432">
<rect width="22" height="16" fill="white"/>
</clipPath>
<clipPath id="clip1_1_50432">
<rect width="22" height="16" rx="2" fill="white"/>
</clipPath>
</defs>
</svg>
