<svg width="22" height="16" viewBox="0 0 22 16" fill="none" xmlns="http://www.w3.org/2000/svg">
<g clip-path="url(#clip0_1_50492)">
<g clip-path="url(#clip1_1_50492)">
<rect width="22" height="16" rx="2" fill="#FFDA2C"/>
<path fill-rule="evenodd" clip-rule="evenodd" d="M0 12.8H22V16H0V12.8ZM0 0H22V3.2H0V0Z" fill="#4769C1"/>
<path fill-rule="evenodd" clip-rule="evenodd" d="M0 4.26667H22V11.7333H0V4.26667Z" fill="#BC0A33"/>
<path fill-rule="evenodd" clip-rule="evenodd" d="M4.19049 8.53333H17.8095V9.6H4.19049V8.53333ZM6.28573 6.4H16.7619V7.46667H6.28573V6.4Z" fill="#FFDA2C"/>
<path fill-rule="evenodd" clip-rule="evenodd" d="M16.7619 6.4H18.8571V7.46667H16.7619V6.4Z" fill="#CBCBCB"/>
<path fill-rule="evenodd" clip-rule="evenodd" d="M11 10.6667C13.6033 10.6667 15.7143 8 15.7143 8C15.7143 8 13.6033 5.33333 11 5.33333C8.39666 5.33333 6.28571 8 6.28571 8C6.28571 8 8.39666 10.6667 11 10.6667Z" fill="white"/>
<path fill-rule="evenodd" clip-rule="evenodd" d="M11 10.6667C11.5238 10.6667 12.5714 8 12.5714 8C12.5714 8 11.5238 5.33333 11 5.33333C8.39666 5.33333 6.28571 8 6.28571 8C6.28571 8 8.39666 10.6667 11 10.6667Z" fill="#151515"/>
<path fill-rule="evenodd" clip-rule="evenodd" d="M8.38095 7.46667H9.42857V8.53333H8.38095V7.46667ZM10.4762 7.46667H11.5238V8.53333H10.4762V7.46667Z" fill="#CBCBCB"/>
<path fill-rule="evenodd" clip-rule="evenodd" d="M13.619 7.46667H14.6667V8.53333H13.619V7.46667Z" fill="#151515" stroke="#151515"/>
</g>
</g>
<defs>
<clipPath id="clip0_1_50492">
<rect width="22" height="16" fill="white"/>
</clipPath>
<clipPath id="clip1_1_50492">
<rect width="22" height="16" rx="2" fill="white"/>
</clipPath>
</defs>
</svg>
