<svg width="22" height="16" viewBox="0 0 22 16" fill="none" xmlns="http://www.w3.org/2000/svg">
<g clip-path="url(#clip0_1_50198)">
<g clip-path="url(#clip1_1_50198)">
<rect width="22" height="16" rx="2" fill="#1A47B8"/>
<path d="M19.9048 0H2.09524C0.93807 0 0 0.955126 0 2.13333V13.8667C0 15.0449 0.93807 16 2.09524 16H19.9048C21.0619 16 22 15.0449 22 13.8667V2.13333C22 0.955126 21.0619 0 19.9048 0Z" fill="#1A47B8"/>
<path fill-rule="evenodd" clip-rule="evenodd" d="M11 2L11.0085 2.96295L11.4339 2.09903L11.0237 2.97029L11.7818 2.37651L11.0342 2.98351L11.9749 2.77748L11.038 3L11.9749 3.22252L11.0342 3.01649L11.7818 3.62349L11.0237 3.02971L11.4339 3.90097L11.0085 3.03705L11 4L10.9915 3.03705L10.5661 3.90097L10.9763 3.02971L10.2182 3.62349L10.9658 3.01649L10.0251 3.22252L10.962 3L10.0251 2.77748L10.9658 2.98351L10.2182 2.37651L10.9763 2.97029L10.5661 2.09903L10.9915 2.96295L11 2ZM6.00845 7.96295L6 7L5.99154 7.96295L5.56611 7.09903L5.97631 7.97029L5.21817 7.37651L5.96576 7.98351L5.02507 7.77748L5.962 8L5.02507 8.22252L5.96576 8.01649L5.21817 8.62349L5.97631 8.02971L5.56611 8.90097L5.99154 8.03705L6 9L6.00845 8.03705L6.43388 8.90097L6.02369 8.02971L6.78183 8.62349L6.03423 8.01649L6.97493 8.22252L6.038 8L6.97493 7.77748L6.03423 7.98351L6.78183 7.37651L6.02369 7.97029L6.43388 7.09903L6.00845 7.96295ZM16.0085 7.96295L16 7L15.9915 7.96295L15.5661 7.09903L15.9763 7.97029L15.2182 7.37651L15.9658 7.98351L15.0251 7.77748L15.962 8L15.0251 8.22252L15.9658 8.01649L15.2182 8.62349L15.9763 8.02971L15.5661 8.90097L15.9915 8.03705L16 9L16.0085 8.03705L16.4339 8.90097L16.0237 8.02971L16.7818 8.62349L16.0342 8.01649L16.9749 8.22252L16.038 8L16.9749 7.77748L16.0342 7.98351L16.7818 7.37651L16.0237 7.97029L16.4339 7.09903L16.0085 7.96295ZM11.0085 12.963L11 12L10.9915 12.963L10.5661 12.099L10.9763 12.9703L10.2182 12.3765L10.9658 12.9835L10.0251 12.7775L10.962 13L10.0251 13.2225L10.9658 13.0165L10.2182 13.6235L10.9763 13.0297L10.5661 13.901L10.9915 13.037L11 14L11.0085 13.037L11.4339 13.901L11.0237 13.0297L11.7818 13.6235L11.0342 13.0165L11.9749 13.2225L11.038 13L11.9749 12.7775L11.0342 12.9835L11.7818 12.3765L11.0237 12.9703L11.4339 12.099L11.0085 12.963ZM7.5 10.5L7.50845 11.463L7.93388 10.599L7.52369 11.4703L8.28183 10.8765L7.53424 11.4835L8.47493 11.2775L7.538 11.5L8.47493 11.7225L7.53424 11.5165L8.28183 12.1235L7.52369 11.5297L7.93388 12.401L7.50845 11.537L7.5 12.5L7.49154 11.537L7.06611 12.401L7.47631 11.5297L6.71817 12.1235L7.46576 11.5165L6.52507 11.7225L7.462 11.5L6.52507 11.2775L7.46576 11.4835L6.71817 10.8765L7.47631 11.4703L7.06611 10.599L7.49154 11.463L7.5 10.5ZM7.50845 4.46295L7.5 3.5L7.49154 4.46295L7.06611 3.59903L7.47631 4.47029L6.71817 3.87651L7.46576 4.48351L6.52507 4.27748L7.462 4.5L6.52507 4.72252L7.46576 4.51649L6.71817 5.12349L7.47631 4.52971L7.06611 5.40097L7.49154 4.53705L7.5 5.5L7.50845 4.53705L7.93388 5.40097L7.52369 4.52971L8.28183 5.12349L7.53424 4.51649L8.47493 4.72252L7.538 4.5L8.47493 4.27748L7.53424 4.48351L8.28183 3.87651L7.52369 4.47029L7.93388 3.59903L7.50845 4.46295ZM14.5 10.5L14.5085 11.463L14.9339 10.599L14.5237 11.4703L15.2818 10.8765L14.5342 11.4835L15.4749 11.2775L14.538 11.5L15.4749 11.7225L14.5342 11.5165L15.2818 12.1235L14.5237 11.5297L14.9339 12.401L14.5085 11.537L14.5 12.5L14.4915 11.537L14.0661 12.401L14.4763 11.5297L13.7182 12.1235L14.4658 11.5165L13.5251 11.7225L14.462 11.5L13.5251 11.2775L14.4658 11.4835L13.7182 10.8765L14.4763 11.4703L14.0661 10.599L14.4915 11.463L14.5 10.5ZM14.5085 4.46295L14.5 3.5L14.4915 4.46295L14.0661 3.59903L14.4763 4.47029L13.7182 3.87651L14.4658 4.48351L13.5251 4.27748L14.462 4.5L13.5251 4.72252L14.4658 4.51649L13.7182 5.12349L14.4763 4.52971L14.0661 5.40097L14.4915 4.53705L14.5 5.5L14.5085 4.53705L14.9339 5.40097L14.5237 4.52971L15.2818 5.12349L14.5342 4.51649L15.4749 4.72252L14.538 4.5L15.4749 4.27748L14.5342 4.48351L15.2818 3.87651L14.5237 4.47029L14.9339 3.59903L14.5085 4.46295Z" fill="#FFFF00"/>
</g>
</g>
<defs>
<clipPath id="clip0_1_50198">
<rect width="22" height="16" fill="white"/>
</clipPath>
<clipPath id="clip1_1_50198">
<rect width="22" height="16" rx="2" fill="white"/>
</clipPath>
</defs>
</svg>
