<svg width="22" height="16" viewBox="0 0 22 16" fill="none" xmlns="http://www.w3.org/2000/svg">
<g clip-path="url(#clip0_1_50691)">
<rect width="22" height="16" rx="2" fill="#F93939"/>
<path fill-rule="evenodd" clip-rule="evenodd" d="M10.692 10.1173C10.7936 10.128 10.8963 10.1333 11 10.1333C11.1048 10.1333 11.2064 10.128 11.308 10.1173L11 9.33334L10.692 10.1173ZM9.27143 9.536C8.72352 9.0944 8.38095 8.45014 8.38095 7.73334C8.38095 6.88747 8.85867 6.144 9.57943 5.71734L10.4762 8L9.27143 9.536ZM12.4206 5.71734C13.1413 6.144 13.619 6.88747 13.619 7.73334C13.619 8.4512 13.2754 9.09547 12.7286 9.536L11.5238 8L12.4206 5.71734ZM12.3158 5.6576C11.9282 5.45067 11.4798 5.33334 11 5.33334C10.5202 5.33334 10.0708 5.45067 9.68419 5.6576L11 7.33227L12.3158 5.6576Z" fill="#FFDA2C"/>
<path fill-rule="evenodd" clip-rule="evenodd" d="M11 12.8C13.6033 12.8 15.7143 10.6507 15.7143 8C15.7143 5.34933 13.6033 3.2 11 3.2C8.39667 3.2 6.28572 5.34933 6.28572 8C6.28572 10.6507 8.39667 12.8 11 12.8ZM11 11.7333C13.0251 11.7333 14.6667 10.0619 14.6667 8C14.6667 5.93813 13.0251 4.26666 11 4.26666C8.97496 4.26666 7.33334 5.93813 7.33334 8C7.33334 10.0619 8.97496 11.7333 11 11.7333Z" fill="#FFDA2C"/>
</g>
<defs>
<clipPath id="clip0_1_50691">
<rect width="22" height="16" fill="white"/>
</clipPath>
</defs>
</svg>
