<svg width="22" height="16" viewBox="0 0 22 16" fill="none" xmlns="http://www.w3.org/2000/svg">
<g clip-path="url(#clip0_1_50722)">
<rect width="22" height="16" rx="2" fill="#F93939"/>
<path fill-rule="evenodd" clip-rule="evenodd" d="M0 0H22V8H0V0Z" fill="#1A47B8"/>
<path fill-rule="evenodd" clip-rule="evenodd" d="M4.19048 5.33334H8.38095V6.4H4.19048V5.33334Z" fill="#D4AF2C"/>
<path fill-rule="evenodd" clip-rule="evenodd" d="M5.24857 3.35146C4.9259 3.26613 4.55714 3.2 4.19048 3.2C3.14286 3.2 3.14286 3.73333 3.14286 4.26666C3.14286 4.8 4.19048 5.33333 4.19048 5.33333H8.38095C8.38095 5.33333 9.42857 4.8 9.42857 4.26666C9.42857 3.73333 9.42857 3.2 8.38095 3.2C8.01429 3.2 7.64552 3.26613 7.32286 3.35146C7.33019 3.30133 7.33333 3.2512 7.33333 3.2C7.33333 2.6112 6.864 2.13333 6.28571 2.13333C5.70743 2.13333 5.23809 2.6112 5.23809 3.2C5.23809 3.2512 5.24124 3.30133 5.24857 3.35146Z" fill="#FFDA2C"/>
</g>
<defs>
<clipPath id="clip0_1_50722">
<rect width="22" height="16" fill="white"/>
</clipPath>
</defs>
</svg>
