<svg width="22" height="16" viewBox="0 0 22 16" fill="none" xmlns="http://www.w3.org/2000/svg">
<g clip-path="url(#clip0_1_50793)">
<rect width="22" height="16" rx="2" fill="#3A99FF"/>
<path fill-rule="evenodd" clip-rule="evenodd" d="M10.4762 4.26666H9.94715C9.65381 4.26666 9.42857 4.5056 9.42857 4.8C9.42857 5.08586 9.66115 5.33333 9.94715 5.33333H10.4762V5.872C10.4762 6.17066 10.7109 6.4 11 6.4C11.2808 6.4 11.5238 6.1632 11.5238 5.872V5.33333H12.0529C12.3462 5.33333 12.5714 5.0944 12.5714 4.8C12.5714 4.51413 12.3389 4.26666 12.0529 4.26666H11.5238V3.728C11.5238 3.42933 11.2891 3.2 11 3.2C10.7192 3.2 10.4762 3.4368 10.4762 3.728V4.26666ZM14.6667 7.46666H14.1376C13.8443 7.46666 13.6191 7.7056 13.6191 8C13.6191 8.28586 13.8516 8.53333 14.1376 8.53333H14.6667V9.072C14.6667 9.37066 14.9013 9.6 15.1905 9.6C15.4712 9.6 15.7143 9.3632 15.7143 9.072V8.53333H16.2433C16.5367 8.53333 16.7619 8.2944 16.7619 8C16.7619 7.71413 16.5293 7.46666 16.2433 7.46666H15.7143V6.928C15.7143 6.62933 15.4796 6.4 15.1905 6.4C14.9097 6.4 14.6667 6.6368 14.6667 6.928V7.46666ZM10.4762 10.6667H9.94715C9.65381 10.6667 9.42857 10.9056 9.42857 11.2C9.42857 11.4859 9.66115 11.7333 9.94715 11.7333H10.4762V12.272C10.4762 12.5707 10.7109 12.8 11 12.8C11.2808 12.8 11.5238 12.5632 11.5238 12.272V11.7333H12.0529C12.3462 11.7333 12.5714 11.4944 12.5714 11.2C12.5714 10.9141 12.3389 10.6667 12.0529 10.6667H11.5238V10.128C11.5238 9.82933 11.2891 9.6 11 9.6C10.7192 9.6 10.4762 9.8368 10.4762 10.128V10.6667ZM6.28572 7.46666H5.75667C5.46334 7.46666 5.2381 7.7056 5.2381 8C5.2381 8.28586 5.47067 8.53333 5.75667 8.53333H6.28572V9.072C6.28572 9.37066 6.52038 9.6 6.80953 9.6C7.09029 9.6 7.33334 9.3632 7.33334 9.072V8.53333H7.86238C8.15572 8.53333 8.38096 8.2944 8.38096 8C8.38096 7.71413 8.14838 7.46666 7.86238 7.46666H7.33334V6.928C7.33334 6.62933 7.09867 6.4 6.80953 6.4C6.52876 6.4 6.28572 6.6368 6.28572 6.928V7.46666Z" fill="white"/>
</g>
<defs>
<clipPath id="clip0_1_50793">
<rect width="22" height="16" fill="white"/>
</clipPath>
</defs>
</svg>
