<svg width="22" height="16" viewBox="0 0 22 16" fill="none" xmlns="http://www.w3.org/2000/svg">
<g clip-path="url(#clip0_1_50959)">
<rect width="22" height="16" rx="2" fill="#F93939"/>
<path fill-rule="evenodd" clip-rule="evenodd" d="M0 0H7V16H0V0Z" fill="#249F58"/>
<path d="M7.33335 10.6667C9.0691 10.6667 10.4762 9.23397 10.4762 7.46666C10.4762 5.69935 9.0691 4.26666 7.33335 4.26666C5.5976 4.26666 4.19049 5.69935 4.19049 7.46666C4.19049 9.23397 5.5976 10.6667 7.33335 10.6667Z" fill="#FFDA2C"/>
<path fill-rule="evenodd" clip-rule="evenodd" d="M9.42857 8.53333V5.33333H5.2381V8.53333C5.2381 9.12213 6.17572 9.6 7.33334 9.6C8.49096 9.6 9.42857 9.12213 9.42857 8.53333Z" fill="#F93939"/>
<path fill-rule="evenodd" clip-rule="evenodd" d="M6.28571 6.39999H8.38094V8.53333H6.28571V6.39999Z" fill="white"/>
<path fill-rule="evenodd" clip-rule="evenodd" d="M6.28571 6.39999H7.33332V7.46666H6.28571V6.39999ZM7.33332 7.46666H8.38094V8.53333H7.33332V7.46666Z" fill="#1A47B8"/>
</g>
<defs>
<clipPath id="clip0_1_50959">
<rect width="22" height="16" fill="white"/>
</clipPath>
</defs>
</svg>
