<svg width="22" height="16" viewBox="0 0 22 16" fill="none" xmlns="http://www.w3.org/2000/svg">
<g clip-path="url(#clip0_1_51064)">
<g clip-path="url(#clip1_1_51064)">
<rect width="22" height="16" rx="2" fill="#1A47B8"/>
<path fill-rule="evenodd" clip-rule="evenodd" d="M0 16H22V0L0 16Z" fill="#FFDA2C"/>
<path fill-rule="evenodd" clip-rule="evenodd" d="M2.09525 16H22V2.13333L2.09525 16Z" fill="#249F58"/>
<path fill-rule="evenodd" clip-rule="evenodd" d="M5.36591 6.0352L4.71848 6.4L4.8421 5.62773L4.31829 5.0816L5.04115 4.96853L5.36591 4.26666L5.69067 4.96853L6.41353 5.0816L5.88972 5.62773L6.01334 6.4L5.36591 6.0352ZM3.27067 3.90186L2.62324 4.26666L2.74686 3.4944L2.22305 2.94826L2.94591 2.8352L3.27067 2.13333L3.59543 2.8352L4.31829 2.94826L3.79448 3.4944L3.9181 4.26666L3.27067 3.90186ZM7.46115 3.90186L6.81372 4.26666L6.93734 3.4944L6.41353 2.94826L7.13639 2.8352L7.46115 2.13333L7.78591 2.8352L8.50877 2.94826L7.98496 3.4944L8.10858 4.26666L7.46115 3.90186ZM7.46115 8.16853L6.81372 8.53333L6.93734 7.76106L6.41353 7.21493L7.13639 7.10186L7.46115 6.4L7.78591 7.10186L8.50877 7.21493L7.98496 7.76106L8.10858 8.53333L7.46115 8.16853ZM3.27067 8.16853L2.62324 8.53333L2.74686 7.76106L2.22305 7.21493L2.94591 7.10186L3.27067 6.4L3.59543 7.10186L4.31829 7.21493L3.79448 7.76106L3.9181 8.53333L3.27067 8.16853Z" fill="white"/>
</g>
</g>
<defs>
<clipPath id="clip0_1_51064">
<rect width="22" height="16" fill="white"/>
</clipPath>
<clipPath id="clip1_1_51064">
<rect width="22" height="16" rx="2" fill="white"/>
</clipPath>
</defs>
</svg>
