<svg width="22" height="16" viewBox="0 0 22 16" fill="none" xmlns="http://www.w3.org/2000/svg">
<g clip-path="url(#clip0_1_51132)">
<g clip-path="url(#clip1_1_51132)">
<rect width="22" height="16" rx="2" fill="white"/>
<path fill-rule="evenodd" clip-rule="evenodd" d="M0 11H22V16H0V11Z" fill="#151515"/>
<path fill-rule="evenodd" clip-rule="evenodd" d="M0 0H22V5H0V0Z" fill="#AF010D"/>
<path fill-rule="evenodd" clip-rule="evenodd" d="M6.80954 9.33333L5.26954 10.1579L5.56287 8.41173L4.3183 7.17439L6.03954 6.92159L6.80954 5.33333L7.57954 6.92266L9.30077 7.17546L8.05411 8.4128L8.34744 10.1579L6.80954 9.33333ZM15.1905 9.33333L13.6505 10.1579L13.9438 8.41173L12.6992 7.17439L14.4205 6.92159L15.1905 5.33333L15.9605 6.92266L17.6817 7.17546L16.4351 8.4128L16.7284 10.1579" fill="#249F58"/>
</g>
</g>
<defs>
<clipPath id="clip0_1_51132">
<rect width="22" height="16" fill="white"/>
</clipPath>
<clipPath id="clip1_1_51132">
<rect width="22" height="16" rx="2" fill="white"/>
</clipPath>
</defs>
</svg>
