<svg width="22" height="16" viewBox="0 0 22 16" fill="none" xmlns="http://www.w3.org/2000/svg">
<g clip-path="url(#clip0_1_51171)">
<rect width="22" height="16" rx="2" fill="#F93939"/>
<path d="M11 11.7333C13.025 11.7333 14.6667 10.0619 14.6667 8C14.6667 5.93813 13.025 4.26666 11 4.26666C8.97495 4.26666 7.33333 5.93813 7.33333 8C7.33333 10.0619 8.97495 11.7333 11 11.7333Z" fill="white"/>
<path fill-rule="evenodd" clip-rule="evenodd" d="M12.5714 7.46666H13.619V8.53333H12.5714V7.46666Z" fill="#F93939"/>
<path fill-rule="evenodd" clip-rule="evenodd" d="M13.0952 9.6C12.6175 10.2475 11.857 10.6667 11 10.6667C9.55428 10.6667 8.38095 9.472 8.38095 7.99999C8.38095 6.52799 9.55428 5.33333 11 5.33333C11.857 5.33333 12.6175 5.75253 13.0952 6.39999H11.5238C10.6564 6.39999 9.95238 7.11679 9.95238 7.99999C9.95238 8.8832 10.6564 9.6 11.5238 9.6H13.0952Z" fill="#F93939"/>
</g>
<defs>
<clipPath id="clip0_1_51171">
<rect width="22" height="16" fill="white"/>
</clipPath>
</defs>
</svg>
