<svg width="22" height="16" viewBox="0 0 22 16" fill="none" xmlns="http://www.w3.org/2000/svg">
<g clip-path="url(#clip0_1_51186)">
<rect width="22" height="16" rx="2" fill="#3A99FF"/>
<path fill-rule="evenodd" clip-rule="evenodd" d="M14.6667 5.33333V6.39999H15.7143V5.33333H14.6667ZM17.8095 5.33333V6.39999H18.8571V5.33333H17.8095ZM12.5714 8.53333V9.6H13.619V8.53333H12.5714ZM16.7619 9.6V10.6667H17.8095V9.6H16.7619ZM12.5714 11.7333V12.8H13.619V11.7333H12.5714ZM8.38095 10.6667V11.7333H9.42857V10.6667H8.38095Z" fill="#FFDA2C"/>
<path d="M9.42858 1.06667H2.09524C1.51666 1.06667 1.04762 1.54423 1.04762 2.13333V7.46667C1.04762 8.05577 1.51666 8.53333 2.09524 8.53333H9.42858C10.0072 8.53333 10.4762 8.05577 10.4762 7.46667V2.13333C10.4762 1.54423 10.0072 1.06667 9.42858 1.06667Z" fill="white"/>
<path fill-rule="evenodd" clip-rule="evenodd" d="M5.2381 5.33333H2.09524V4.26666H5.2381V2.13333H6.28571V4.26666H9.42857V5.33333H6.28571V7.46666H5.2381V5.33333ZM7.85714 6.4V7.46666H9.42857V6.4H7.85714ZM7.85714 2.13333V3.2H9.42857V2.13333H7.85714ZM2.09524 6.4V7.46666H3.66667V6.4H2.09524ZM2.09524 2.13333V3.2H3.66667V2.13333H2.09524Z" fill="#F93939"/>
</g>
<defs>
<clipPath id="clip0_1_51186">
<rect width="22" height="16" fill="white"/>
</clipPath>
</defs>
</svg>
