<svg width="22" height="16" viewBox="0 0 22 16" fill="none" xmlns="http://www.w3.org/2000/svg">
<g clip-path="url(#clip0_1_51221)">
<rect width="22" height="16" rx="2" fill="white"/>
<path fill-rule="evenodd" clip-rule="evenodd" d="M10.4762 3.2H22V5.33333H10.4762V3.2ZM10.4762 7.46666H22V9.6H10.4762V7.46666ZM0 11.7333H22V13.8667H0V11.7333Z" fill="#3A99FF"/>
<path fill-rule="evenodd" clip-rule="evenodd" d="M7.20763 7.33867C6.96667 8.66667 6.41144 9.6 5.76191 9.6C5.11239 9.6 4.55715 8.66773 4.3162 7.33867C3.01191 7.09333 2.09525 6.528 2.09525 5.86666C2.09525 5.20533 3.01086 4.64 4.3162 4.39466C4.55715 3.06666 5.11239 2.13333 5.76191 2.13333C6.41144 2.13333 6.96667 3.0656 7.20763 4.39466C8.51191 4.64 9.42858 5.20533 9.42858 5.86666C9.42858 6.528 8.51296 7.09333 7.20763 7.33867Z" fill="#D4AF2C"/>
<path fill-rule="evenodd" clip-rule="evenodd" d="M6.48163 6.59946C6.41458 8.30933 6.1181 9.6 5.76191 9.6C5.40572 9.6 5.10925 8.30933 5.0422 6.59946C3.36286 6.5312 2.09525 6.22933 2.09525 5.86666C2.09525 5.504 3.36286 5.20213 5.0422 5.13387C5.10925 3.424 5.40572 2.13333 5.76191 2.13333C6.1181 2.13333 6.41458 3.424 6.48163 5.13387C8.16096 5.20213 9.42858 5.504 9.42858 5.86666C9.42858 6.22933 8.16096 6.5312 6.48163 6.59946Z" fill="#FFDA2C"/>
<path d="M5.7619 7.46666C6.62978 7.46666 7.33333 6.75032 7.33333 5.86666C7.33333 4.98301 6.62978 4.26666 5.7619 4.26666C4.89403 4.26666 4.19048 4.98301 4.19048 5.86666C4.19048 6.75032 4.89403 7.46666 5.7619 7.46666Z" fill="#FFDA2C"/>
</g>
<defs>
<clipPath id="clip0_1_51221">
<rect width="22" height="16" fill="white"/>
</clipPath>
</defs>
</svg>
