<svg width="22" height="16" viewBox="0 0 22 16" fill="none" xmlns="http://www.w3.org/2000/svg">
<g clip-path="url(#clip0_1_51253)">
<g clip-path="url(#clip1_1_51253)">
<rect width="22" height="16" rx="2" fill="white"/>
<mask id="mask0_1_51253" style="mask-type:alpha" maskUnits="userSpaceOnUse" x="0" y="0" width="22" height="16">
<path d="M19.9048 0H2.09524C0.93807 0 0 0.955126 0 2.13333V13.8667C0 15.0449 0.93807 16 2.09524 16H19.9048C21.0619 16 22 15.0449 22 13.8667V2.13333C22 0.955126 21.0619 0 19.9048 0Z" fill="white"/>
</mask>
<g mask="url(#mask0_1_51253)">
<path d="M19.9048 0H2.09524C0.93807 0 0 0.955126 0 2.13333V13.8667C0 15.0449 0.93807 16 2.09524 16H19.9048C21.0619 16 22 15.0449 22 13.8667V2.13333C22 0.955126 21.0619 0 19.9048 0Z" fill="white"/>
<path fill-rule="evenodd" clip-rule="evenodd" d="M15.9762 9.60001L16.7619 10.4L14.4048 12.8L13.619 12L15.9762 9.60001Z" fill="#3A99FF"/>
<path fill-rule="evenodd" clip-rule="evenodd" d="M7.07142 9.60001L6.28571 10.4L8.64285 12.8L9.42856 12L7.07142 9.60001Z" fill="#249F58"/>
<path fill-rule="evenodd" clip-rule="evenodd" d="M7.33332 9.60001H8.38094V10.6667L6.28571 11.7333L7.33332 9.60001Z" fill="#FFDA2C"/>
<path fill-rule="evenodd" clip-rule="evenodd" d="M3.14285 7.46666H4.19047V10.6667H3.14285V7.46666ZM17.8095 7.46666H18.8571V10.6667H17.8095V7.46666Z" fill="#3A99FF"/>
<path fill-rule="evenodd" clip-rule="evenodd" d="M11.5238 4.26666V3.2H9.42859V4.26666L10.4762 5.33333V7.46666H11.5238V4.26666ZM4.19049 4.26666L8.38097 5.33333V8.53333L4.19049 5.33333V4.26666ZM17.8095 4.26666L13.6191 5.33333V8.53333L17.8095 5.33333V4.26666ZM8.38097 11.7333L11 12.8L13.6191 11.7333L12.5714 10.6667H9.42859L8.38097 11.7333Z" fill="#FFDA2C"/>
<path fill-rule="evenodd" clip-rule="evenodd" d="M8.38095 6.39999H13.619V10.6667L11 11.7333L8.38095 10.6667V6.39999Z" fill="#AF010D"/>
<path fill-rule="evenodd" clip-rule="evenodd" d="M8.38095 5.33333H13.619V7.46666H8.38095V5.33333Z" fill="#232C80"/>
<path fill-rule="evenodd" clip-rule="evenodd" d="M9.42856 7.46666H10.4762V10.6667H9.42856V7.46666ZM11.5238 7.46666H12.5714V10.6667H11.5238V7.46666Z" fill="white"/>
<path fill-rule="evenodd" clip-rule="evenodd" d="M14.6667 9.60001H13.619V10.6667L15.7143 11.7333L14.6667 9.60001Z" fill="#FFDA2C"/>
</g>
</g>
</g>
<defs>
<clipPath id="clip0_1_51253">
<rect width="22" height="16" fill="white"/>
</clipPath>
<clipPath id="clip1_1_51253">
<rect width="22" height="16" rx="2" fill="white"/>
</clipPath>
</defs>
</svg>
