<svg width="22" height="16" viewBox="0 0 22 16" fill="none" xmlns="http://www.w3.org/2000/svg">
<g clip-path="url(#clip0_1_51280)">
<g clip-path="url(#clip1_1_51280)">
<rect width="22" height="16" rx="2" fill="#249F58"/>
<path fill-rule="evenodd" clip-rule="evenodd" d="M0 2.13333H22V13.8667H0V2.13333Z" fill="#FFDA2C"/>
<path fill-rule="evenodd" clip-rule="evenodd" d="M0 4.26666H22V11.7333H0V4.26666Z" fill="#F93939"/>
<path fill-rule="evenodd" clip-rule="evenodd" d="M0 6.39999H22V9.59999H0V6.39999Z" fill="#151515"/>
<path fill-rule="evenodd" clip-rule="evenodd" d="M1.04762 0L12.5714 8L1.04762 16H0V0" fill="#151515"/>
<path fill-rule="evenodd" clip-rule="evenodd" d="M0 0L11.5238 8L0 16V0Z" fill="white"/>
<path fill-rule="evenodd" clip-rule="evenodd" d="M4.71429 9.33333L3.17429 10.1579L3.46762 8.41173L2.22305 7.17439L3.94429 6.92159L4.71429 5.33333L5.48429 6.92266L7.20553 7.17546L5.95886 8.4128L6.2522 10.1579" fill="#F93939"/>
<path fill-rule="evenodd" clip-rule="evenodd" d="M3.14285 9.59999H6.28571V8.53333L5.23809 7.46666C5.23809 7.46666 5.23809 6.39999 4.19047 6.39999H3.14285L4.19047 7.46666L3.14285 9.59999Z" fill="#FFDA2C"/>
</g>
</g>
<defs>
<clipPath id="clip0_1_51280">
<rect width="22" height="16" fill="white"/>
</clipPath>
<clipPath id="clip1_1_51280">
<rect width="22" height="16" rx="2" fill="white"/>
</clipPath>
</defs>
</svg>
