<svg width="24" height="24" viewBox="0 0 24 24" fill="none" xmlns="http://www.w3.org/2000/svg">
<path opacity="0.4" d="M12 22C17.5228 22 22 17.5228 22 12C22 6.47715 17.5228 2 12 2C6.47715 2 2 6.47715 2 12C2 17.5228 6.47715 22 12 22Z" fill="#171717"/>
<path d="M10.74 16.28C10.55 16.28 10.36 16.21 10.21 16.06C9.91999 15.77 9.91999 15.29 10.21 15L13.21 12L10.21 9.00003C9.91999 8.71003 9.91999 8.23003 10.21 7.94003C10.5 7.65003 10.98 7.65003 11.27 7.94003L14.8 11.47C15.09 11.76 15.09 12.24 14.8 12.53L11.27 16.06C11.12 16.21 10.93 16.28 10.74 16.28Z" fill="#171717"/>
</svg>
