<svg width="24" height="24" viewBox="0 0 24 24" fill="none" xmlns="http://www.w3.org/2000/svg">
<path opacity="0.4" d="M19.24 5.58006H18.84L15.46 2.20006C15.19 1.93006 14.75 1.93006 14.47 2.20006C14.2 2.47006 14.2 2.91006 14.47 3.19006L16.86 5.58006H7.14L9.53 3.19006C9.8 2.92006 9.8 2.48006 9.53 2.20006C9.26 1.93006 8.82 1.93006 8.54 2.20006L5.17 5.58006H4.77C3.87 5.58006 2 5.58006 2 8.14006C2 9.11006 2.2 9.75006 2.62 10.1701C2.86 10.4201 3.15 10.5501 3.46 10.6201C3.75 10.6901 4.06 10.7001 4.36 10.7001H19.64C19.95 10.7001 20.24 10.6801 20.52 10.6201C21.36 10.4201 22 9.82006 22 8.14006C22 5.58006 20.13 5.58006 19.24 5.58006Z" fill="#171717"/>
<path d="M19.66 10.7H4.35996C4.06996 10.7 3.74996 10.69 3.45996 10.61L4.71996 18.3C5.00996 20.02 5.75996 22 9.08996 22H14.7C18.07 22 18.67 20.31 19.03 18.42L20.54 10.61C20.26 10.68 19.96 10.7 19.66 10.7ZM13.92 17.89C13.77 18.04 13.58 18.11 13.39 18.11C13.2 18.11 13.01 18.04 12.86 17.89L12.01 17.04L11.13 17.92C10.98 18.07 10.79 18.14 10.6 18.14C10.41 18.14 10.22 18.07 10.07 17.92C9.77996 17.63 9.77996 17.15 10.07 16.86L10.95 15.98L10.1 15.13C9.80996 14.84 9.80996 14.36 10.1 14.07C10.39 13.78 10.87 13.78 11.16 14.07L12.01 14.92L12.83 14.1C13.12 13.81 13.6 13.81 13.89 14.1C14.18 14.39 14.18 14.87 13.89 15.16L13.07 15.98L13.92 16.83C14.22 17.13 14.22 17.6 13.92 17.89Z" fill="#171717"/>
</svg>
