<svg width="20" height="20" viewBox="0 0 20 20" fill="none" xmlns="http://www.w3.org/2000/svg">
<path opacity="0.4" d="M14.19 0.000213623H5.81C2.17 0.000213623 0 2.17021 0 5.81021V14.1802C0 17.8302 2.17 20.0002 5.81 20.0002H14.18C17.82 20.0002 19.99 17.8302 19.99 14.1902V5.81021C20 2.17021 17.83 0.000213623 14.19 0.000213623Z" fill="#171717"/>
<path d="M19.8298 1.55022C18.7798 4.16022 16.3998 7.57022 14.1198 9.80022C13.7898 7.74022 12.1498 6.13022 10.0698 5.84022C12.3098 3.56022 15.7398 1.14022 18.3598 0.0802204C18.8198 -0.0997796 19.2898 0.0402204 19.5698 0.33022C19.8798 0.63022 20.0198 1.09022 19.8298 1.55022Z" fill="#171717"/>
<path opacity="0.4" d="M14.1202 9.79022C13.7202 10.1802 13.3202 10.5402 12.9402 10.8402L11.3702 12.1002C11.1702 12.2402 10.9702 12.3602 10.7502 12.4602C10.7502 12.3102 10.7302 12.1602 10.7202 12.0002C10.6302 11.3402 10.3302 10.7102 9.79018 10.1702C9.24018 9.63022 8.58018 9.32021 7.91018 9.23022C7.75018 9.21022 7.58018 9.21022 7.43018 9.21022C7.52018 8.96022 7.65018 8.73022 7.82018 8.54022L9.07018 6.97022C9.37018 6.59022 9.71018 6.21022 10.0802 5.83022C12.1502 6.12022 13.8002 7.74022 14.1202 9.79022Z" fill="#171717"/>
<path d="M10.7501 12.4702C10.7501 13.3502 10.4101 14.1902 9.78007 14.8202C9.29007 15.3102 8.64007 15.6502 7.84007 15.7502L5.88007 15.9702C4.81007 16.0902 3.89007 15.1702 4.01007 14.0902L4.23007 12.1302C4.42007 10.3802 5.88007 9.26023 7.43007 9.23023C7.58007 9.22023 7.75007 9.23023 7.91007 9.25023C8.59007 9.34023 9.24007 9.65023 9.79007 10.1902C10.3201 10.7202 10.6301 11.3602 10.7201 12.0202C10.7301 12.1702 10.7501 12.3202 10.7501 12.4702Z" fill="#171717"/>
</svg>
