<svg width="25" height="24" viewBox="0 0 25 24" fill="none" xmlns="http://www.w3.org/2000/svg">
<path d="M18.9468 15.03C16.7368 15.03 14.9468 16.82 14.9468 19.03C14.9468 21.24 16.7368 23.03 18.9468 23.03C21.1568 23.03 22.9468 21.24 22.9468 19.03C22.9468 16.82 21.1568 15.03 18.9468 15.03ZM20.5468 20.68C20.3968 20.83 20.2067 20.9 20.0167 20.9C19.8267 20.9 19.6368 20.83 19.4868 20.68L18.9567 20.15L18.4067 20.7C18.2567 20.85 18.0668 20.92 17.8768 20.92C17.6868 20.92 17.4967 20.85 17.3467 20.7C17.0567 20.41 17.0567 19.93 17.3467 19.64L17.8967 19.09L17.3668 18.56C17.0768 18.27 17.0768 17.79 17.3668 17.5C17.6568 17.21 18.1368 17.21 18.4268 17.5L18.9567 18.03L19.4567 17.53C19.7467 17.24 20.2267 17.24 20.5167 17.53C20.8067 17.82 20.8067 18.3 20.5167 18.59L20.0167 19.09L20.5468 19.62C20.8368 19.91 20.8368 20.39 20.5468 20.68Z" fill="#171717"/>
<path d="M22.0469 7.54002V9.00002H2.04688V7.54002C2.04688 5.25002 3.9069 3.40002 6.1969 3.40002H17.8969C20.1869 3.40002 22.0469 5.25002 22.0469 7.54002Z" fill="#171717"/>
<path opacity="0.4" d="M2.04688 9V16.46C2.04688 18.75 3.89689 20.6 6.18689 20.6H12.4469C13.0269 20.6 13.5269 20.11 13.4769 19.53C13.3369 18 13.8269 16.34 15.1869 15.02C15.7469 14.47 16.4369 14.05 17.1869 13.81C18.4369 13.41 19.6469 13.46 20.7169 13.82C21.3669 14.04 22.0469 13.57 22.0469 12.88V9H2.04688ZM8.04688 17.25H6.04688C5.63687 17.25 5.29688 16.91 5.29688 16.5C5.29688 16.09 5.63687 15.75 6.04688 15.75H8.04688C8.45687 15.75 8.79688 16.09 8.79688 16.5C8.79688 16.91 8.45687 17.25 8.04688 17.25Z" fill="#171717"/>
<path d="M8.79688 16.5C8.79688 16.91 8.45688 17.25 8.04688 17.25H6.04688C5.63688 17.25 5.29688 16.91 5.29688 16.5C5.29688 16.09 5.63688 15.75 6.04688 15.75H8.04688C8.45688 15.75 8.79688 16.09 8.79688 16.5Z" fill="#171717"/>
</svg>
