<svg width="24" height="24" viewBox="0 0 24 24" fill="none" xmlns="http://www.w3.org/2000/svg">
<path opacity="0.4" d="M22 10.76C22 10.29 21.62 9.90002 21.14 9.90002H2.86C2.38 9.90002 2 10.28 2 10.76C2 16.65 6.11 20.76 12 20.76C17.89 20.76 22 16.64 22 10.76Z" fill="#171717"/>
<path d="M12.53 3.46004L15.38 6.30004C15.67 6.59004 15.67 7.07004 15.38 7.36004C15.09 7.65004 14.61 7.65004 14.32 7.36004L12.75 5.80004V15.37C12.75 15.78 12.41 16.12 12 16.12C11.59 16.12 11.25 15.78 11.25 15.37V5.80004L9.69002 7.37004C9.40002 7.66004 8.92002 7.66004 8.63002 7.37004C8.48002 7.22004 8.40002 7.03004 8.40002 6.84004C8.40002 6.65004 8.47002 6.46004 8.62002 6.31004L11.47 3.47004C11.76 3.17004 12.24 3.17004 12.53 3.46004Z" fill="#171717"/>
</svg>
