<svg width="25" height="24" viewBox="0 0 25 24" fill="none" xmlns="http://www.w3.org/2000/svg">
<path opacity="0.4" d="M21.6656 10.03C21.2756 9.46997 20.5856 9.14997 19.7956 9.14997H15.6956C15.4256 9.14997 15.1756 9.03998 15.0056 8.83998C14.8256 8.63998 14.7556 8.35997 14.7956 8.06997L15.3056 4.78997C15.5256 3.80997 14.8756 2.70998 13.8956 2.37998C12.9856 2.03998 11.9156 2.49998 11.4856 3.14998L7.26563 9.41998L7.14563 9.61998V18.46L7.29563 18.61L10.4656 21.06C10.8856 21.48 11.8356 21.71 12.5056 21.71H16.4056C17.7456 21.71 19.0956 20.7 19.3956 19.47L21.8556 11.98C22.1156 11.27 22.0456 10.58 21.6656 10.03Z" fill="#171717"/>
<path d="M5.22563 6.38H4.19562C2.64562 6.38 2.01562 6.98 2.01562 8.46V18.52C2.01562 20 2.64562 20.6 4.19562 20.6H5.22563C6.77563 20.6 7.40562 20 7.40562 18.52V8.46C7.40562 6.98 6.77563 6.38 5.22563 6.38Z" fill="#171717"/>
</svg>
