<svg width="25" height="24" viewBox="0 0 25 24" fill="none" xmlns="http://www.w3.org/2000/svg">
<path opacity="0.4" d="M6.7737 19.7C7.5937 18.82 8.8437 18.89 9.5637 19.85L10.5737 21.2C11.3837 22.27 12.6937 22.27 13.5037 21.2L14.5137 19.85C15.2337 18.89 16.4837 18.82 17.3037 19.7C19.0837 21.6 20.5337 20.97 20.5337 18.31V7.04C20.5437 3.01 19.6037 2 15.8237 2H8.2637C4.4837 2 3.5437 3.01 3.5437 7.04V18.3C3.5437 20.97 5.0037 21.59 6.7737 19.7Z" fill="#171717"/>
<path d="M16.2737 11.75H10.7737C10.3637 11.75 10.0237 11.41 10.0237 11C10.0237 10.59 10.3637 10.25 10.7737 10.25H16.2737C16.6837 10.25 17.0237 10.59 17.0237 11C17.0237 11.41 16.6837 11.75 16.2737 11.75Z" fill="#171717"/>
<path d="M16.2737 7.75H10.7737C10.3637 7.75 10.0237 7.41 10.0237 7C10.0237 6.59 10.3637 6.25 10.7737 6.25H16.2737C16.6837 6.25 17.0237 6.59 17.0237 7C17.0237 7.41 16.6837 7.75 16.2737 7.75Z" fill="#171717"/>
<path d="M7.82373 8C7.27373 8 6.82373 7.55 6.82373 7C6.82373 6.45 7.27373 6 7.82373 6C8.37373 6 8.82373 6.45 8.82373 7C8.82373 7.55 8.37373 8 7.82373 8Z" fill="#171717"/>
<path d="M7.82373 12C7.27373 12 6.82373 11.55 6.82373 11C6.82373 10.45 7.27373 10 7.82373 10C8.37373 10 8.82373 10.45 8.82373 11C8.82373 11.55 8.37373 12 7.82373 12Z" fill="#171717"/>
</svg>
