<svg width="25" height="24" viewBox="0 0 25 24" fill="none" xmlns="http://www.w3.org/2000/svg">
<path opacity="0.4" d="M6.77199 19.7C7.59199 18.82 8.84199 18.89 9.56199 19.85L10.572 21.2C11.382 22.27 12.692 22.27 13.502 21.2L14.512 19.85C15.232 18.89 16.482 18.82 17.302 19.7C19.082 21.6 20.532 20.97 20.532 18.31V7.04C20.542 3.01 19.602 2 15.822 2H8.26199C4.48199 2 3.54199 3.01 3.54199 7.04V18.3C3.54199 20.97 5.00199 21.59 6.77199 19.7Z" fill="#171717"/>
<path d="M16.042 7.75H8.04199C7.63199 7.75 7.29199 7.41 7.29199 7C7.29199 6.59 7.63199 6.25 8.04199 6.25H16.042C16.452 6.25 16.792 6.59 16.792 7C16.792 7.41 16.452 7.75 16.042 7.75Z" fill="#171717"/>
<path d="M15.042 11.75H9.04199C8.63199 11.75 8.29199 11.41 8.29199 11C8.29199 10.59 8.63199 10.25 9.04199 10.25H15.042C15.452 10.25 15.792 10.59 15.792 11C15.792 11.41 15.452 11.75 15.042 11.75Z" fill="#171717"/>
</svg>
