<svg width="25" height="24" viewBox="0 0 25 24" fill="none" xmlns="http://www.w3.org/2000/svg">
<path opacity="0.4" d="M5.75561 16C5.86561 15.51 5.66561 14.81 5.31561 14.46L2.88561 12.03C2.12561 11.27 1.82561 10.46 2.04561 9.76C2.27561 9.06 2.98561 8.58 4.04561 8.4L7.16561 7.88C7.61561 7.8 8.16561 7.4 8.37561 6.99L10.0956 3.54C10.5956 2.55 11.2756 2 12.0156 2C12.7556 2 13.4356 2.55 13.9356 3.54L15.6556 6.99C15.7856 7.25 16.0556 7.5 16.3456 7.67L5.57561 18.44C5.43561 18.58 5.19561 18.45 5.23561 18.25L5.75561 16Z" fill="#171717"/>
<path d="M18.7157 14.46C18.3557 14.82 18.1557 15.51 18.2757 16L18.9657 19.01C19.2557 20.26 19.0757 21.2 18.4557 21.65C18.2057 21.83 17.9057 21.92 17.5557 21.92C17.0457 21.92 16.4457 21.73 15.7857 21.34L12.8557 19.6C12.3957 19.33 11.6357 19.33 11.1757 19.6L8.24567 21.34C7.13567 21.99 6.18567 22.1 5.57567 21.65C5.34567 21.48 5.17567 21.25 5.06567 20.95L17.2257 8.79002C17.6857 8.33002 18.3357 8.12002 18.9657 8.23002L19.9757 8.40002C21.0357 8.58002 21.7457 9.06002 21.9757 9.76002C22.1957 10.46 21.8957 11.27 21.1357 12.03L18.7157 14.46Z" fill="#171717"/>
</svg>
