<svg width="24" height="24" viewBox="0 0 24 24" fill="none" xmlns="http://www.w3.org/2000/svg">
<path opacity="0.4" d="M7.81 2H16.18C19.83 2 22 4.17 22 7.81V16.18C22 19.82 19.83 21.99 16.19 21.99H7.81C4.17 22 2 19.83 2 16.19V7.81C2 4.17 4.17 2 7.81 2Z" fill="#171717"/>
<path d="M13.92 8.98006H8.77L9.1 8.65006C9.39 8.36006 9.39 7.88006 9.1 7.59006C8.81 7.30006 8.33 7.30006 8.04 7.59006L6.47 9.16006C6.18 9.45006 6.18 9.93006 6.47 10.2201L8.04 11.7901C8.19 11.9401 8.38 12.0101 8.57 12.0101C8.76 12.0101 8.95 11.9401 9.1 11.7901C9.39 11.5001 9.39 11.0201 9.1 10.7301L8.84 10.4701H13.92C15.2 10.4701 16.25 11.5101 16.25 12.8001C16.25 14.0901 15.21 15.1301 13.92 15.1301H9C8.59 15.1301 8.25 15.4701 8.25 15.8801C8.25 16.2901 8.59 16.6301 9 16.6301H13.92C16.03 16.6301 17.75 14.9101 17.75 12.8001C17.75 10.6901 16.03 8.98006 13.92 8.98006Z" fill="#171717"/>
</svg>
