<svg width="24" height="24" viewBox="0 0 24 24" fill="none" xmlns="http://www.w3.org/2000/svg">
<path opacity="0.4" d="M22.0088 12V17C22.0088 20 20.0088 22 17.0088 22H7.00879C4.00879 22 2.00879 20 2.00879 17V12C2.00879 9.28 3.64879 7.38 6.19879 7.06C6.45879 7.02 6.72879 7 7.00879 7H17.0088C17.2688 7 17.5188 7.00999 17.7588 7.04999C20.3388 7.34999 22.0088 9.26 22.0088 12Z" fill="#171717"/>
<path d="M17.7587 7.05C17.5187 7.01 17.2687 7.00001 17.0087 7.00001H7.00873C6.72873 7.00001 6.45873 7.02001 6.19873 7.06001C6.33873 6.78001 6.53873 6.52001 6.77873 6.28001L10.0287 3.02C11.3987 1.66 13.6187 1.66 14.9887 3.02L16.7387 4.79002C17.3787 5.42002 17.7187 6.22 17.7587 7.05Z" fill="#171717"/>
<path d="M22.0088 12.5H19.0088C17.9088 12.5 17.0088 13.4 17.0088 14.5C17.0088 15.6 17.9088 16.5 19.0088 16.5H22.0088" fill="#171717"/>
</svg>
