<svg width="25" height="24" viewBox="0 0 25 24" fill="none" xmlns="http://www.w3.org/2000/svg">
<path d="M1.94678 10.03H21.9468" stroke="#171717" stroke-width="1.5" stroke-miterlimit="10" stroke-linecap="round" stroke-linejoin="round"/>
<path d="M11.5068 20.53H6.39673C2.84673 20.53 1.94678 19.65 1.94678 16.14V7.92004C1.94678 4.74004 2.68675 3.72004 5.47675 3.56004C5.75675 3.55004 6.06673 3.54004 6.39673 3.54004H17.5068C21.0568 3.54004 21.9567 4.42004 21.9567 7.93004V12.34" stroke="#171717" stroke-width="1.5" stroke-linecap="round" stroke-linejoin="round"/>
<path opacity="0.4" d="M17.9468 22.03C20.1559 22.03 21.9468 20.2392 21.9468 18.03C21.9468 15.8209 20.1559 14.03 17.9468 14.03C15.7376 14.03 13.9468 15.8209 13.9468 18.03C13.9468 20.2392 15.7376 22.03 17.9468 22.03Z" stroke="#171717" stroke-width="1.5" stroke-miterlimit="10" stroke-linecap="round" stroke-linejoin="round"/>
<g opacity="0.4">
<path d="M19.0167 19.15L16.9067 17.03" stroke="#171717" stroke-width="1.5" stroke-miterlimit="10" stroke-linecap="round" stroke-linejoin="round"/>
<path d="M18.9969 17.0601L16.877 19.1701" stroke="#171717" stroke-width="1.5" stroke-miterlimit="10" stroke-linecap="round" stroke-linejoin="round"/>
</g>
<path opacity="0.4" d="M5.94678 16.03H9.94678" stroke="#171717" stroke-width="1.5" stroke-miterlimit="10" stroke-linecap="round" stroke-linejoin="round"/>
</svg>
