<svg width="23" height="22" viewBox="0 0 23 22" fill="none" xmlns="http://www.w3.org/2000/svg">
<path opacity="0.4" d="M16.5 12.4V15.4C16.5 19.4 14.9 21 10.9 21H7.1C3.1 21 1.5 19.4 1.5 15.4V11.6C1.5 7.6 3.1 6 7.1 6H10.1" stroke="#171717" stroke-width="1.5" stroke-linecap="round" stroke-linejoin="round"/>
<path d="M16.5001 12.4H13.3001C10.9001 12.4 10.1001 11.6 10.1001 9.2V6L16.5001 12.4Z" stroke="#171717" stroke-width="1.5" stroke-linecap="round" stroke-linejoin="round"/>
<path opacity="0.4" d="M6.5 4C6.5 2.34 7.84 1 9.5 1H15.5" stroke="#171717" stroke-width="1.5" stroke-linecap="round" stroke-linejoin="round"/>
<path opacity="0.4" d="M21.4999 7V13.19C21.4999 14.74 20.2399 16 18.6899 16" stroke="#171717" stroke-width="1.5" stroke-linecap="round" stroke-linejoin="round"/>
<path d="M21.5 7H18.5C16.25 7 15.5 6.25 15.5 4V1L21.5 7Z" stroke="#171717" stroke-width="1.5" stroke-linecap="round" stroke-linejoin="round"/>
</svg>
