<svg width="23" height="22" viewBox="0 0 23 22" fill="none" xmlns="http://www.w3.org/2000/svg">
<path d="M21.5 9V14C21.5 19 19.5 21 14.5 21H8.5C3.5 21 1.5 19 1.5 14V8C1.5 3 3.5 1 8.5 1H13.5" stroke="#171717" stroke-width="1.5" stroke-linecap="round" stroke-linejoin="round"/>
<path d="M21.5 9H17.5C14.5 9 13.5 8 13.5 5V1L21.5 9Z" stroke="#171717" stroke-width="1.5" stroke-linecap="round" stroke-linejoin="round"/>
<path opacity="0.4" fill-rule="evenodd" clip-rule="evenodd" d="M7.82 11H10.47C10.74 11 11.08 11.18 11.22 11.4L12.35 13.1C12.58 13.44 12.53 13.95 12.24 14.24L9.78 16.7C9.43 17.05 8.85 17.05 8.5 16.7L6.04 14.24C5.75 13.95 5.7 13.44 5.93 13.1L7.06 11.4C7.22 11.18 7.56 11 7.82 11Z" stroke="#171717" stroke-width="1.5" stroke-miterlimit="10" stroke-linecap="round" stroke-linejoin="round"/>
</svg>
