<svg width="23" height="22" viewBox="0 0 23 22" fill="none" xmlns="http://www.w3.org/2000/svg">
<path d="M14.5 7.37003V6.41003C14.5 3.43003 12.43 2.29003 9.91 3.87003L6.99 5.70003C6.67 5.89003 6.3 6.00003 5.93 6.00003H4.5C2.5 6.00003 1.5 7.00003 1.5 9.00003V13C1.5 15 2.5 16 4.5 16H6.5" stroke="#171717" stroke-width="1.5" stroke-linecap="round" stroke-linejoin="round"/>
<path opacity="0.4" d="M9.91003 18.13C12.43 19.71 14.5 18.56 14.5 15.59V11.95" stroke="#171717" stroke-width="1.5" stroke-linecap="round" stroke-linejoin="round"/>
<path opacity="0.4" d="M18.31 8.41992C19.21 10.5699 18.94 13.0799 17.5 14.9999" stroke="#171717" stroke-width="1.5" stroke-linecap="round" stroke-linejoin="round"/>
<path opacity="0.4" d="M20.65 6.80005C22.12 10.29 21.68 14.37 19.33 17.5" stroke="#171717" stroke-width="1.5" stroke-linecap="round" stroke-linejoin="round"/>
<path d="M21.5 1L1.5 21" stroke="#171717" stroke-width="1.5" stroke-linecap="round" stroke-linejoin="round"/>
</svg>
